<svg width="10" height="14" viewBox="0 0 10 14" fill="none" xmlns="http://www.w3.org/2000/svg">
<path d="M8.47003 8.46999C8.53869 8.3963 8.62149 8.3372 8.71349 8.29621C8.80549 8.25522 8.9048 8.23317 9.00551 8.2314C9.10621 8.22962 9.20624 8.24814 9.29963 8.28587C9.39302 8.32359 9.47785 8.37973 9.54907 8.45095C9.62029 8.52217 9.67643 8.607 9.71415 8.70039C9.75187 8.79378 9.7704 8.89381 9.76862 8.99451C9.76684 9.09521 9.7448 9.19453 9.70381 9.28653C9.66282 9.37853 9.60372 9.46133 9.53003 9.52999L5.53003 13.53C5.3894 13.6704 5.19878 13.7493 5.00003 13.7493C4.80128 13.7493 4.61066 13.6704 4.47003 13.53L0.470029 9.52999C0.396342 9.46133 0.33724 9.37853 0.296248 9.28653C0.255256 9.19453 0.233215 9.09521 0.231438 8.99451C0.229662 8.89381 0.248186 8.79378 0.285906 8.70039C0.323627 8.607 0.379773 8.52217 0.450991 8.45095C0.52221 8.37973 0.607044 8.32359 0.700432 8.28587C0.793821 8.24815 0.893848 8.22962 0.994551 8.2314C1.09525 8.23317 1.19457 8.25522 1.28657 8.29621C1.37857 8.3372 1.46137 8.3963 1.53003 8.46999L4.25003 11.19L4.25003 1.49999C4.25003 1.30108 4.32905 1.11031 4.4697 0.969658C4.61035 0.829006 4.80112 0.749989 5.00003 0.749989C5.19894 0.749989 5.38971 0.829006 5.53036 0.969658C5.67101 1.11031 5.75003 1.30108 5.75003 1.49999L5.75003 11.19L8.47003 8.46999Z" fill="#0C0C0C"/>
</svg>
