<svg width="507" height="191" viewBox="0 0 507 191" fill="none" xmlns="http://www.w3.org/2000/svg">
<path d="M89.7939 95.8562V33.1738H129.95V42.6924H101.149V59.7097H127.195V69.2284H101.149V95.8562H89.7939ZM149.41 96.7744C144.696 96.7744 140.626 95.795 137.198 93.8362C133.79 91.8569 131.168 89.0615 129.332 85.4499C127.495 81.8179 126.577 77.5432 126.577 72.6257C126.577 67.7899 127.495 63.5458 129.332 59.8934C131.189 56.2206 133.78 53.364 137.106 51.3235C140.432 49.2627 144.339 48.2322 148.828 48.2322C151.726 48.2322 154.46 48.7015 157.031 49.6401C159.622 50.5583 161.908 51.9867 163.887 53.9251C165.886 55.8635 167.458 58.3324 168.6 61.3319C169.743 64.3109 170.314 67.8613 170.314 71.983V75.3803H131.78V67.9123H159.694C159.673 65.7903 159.214 63.9028 158.316 62.2501C157.419 60.5769 156.164 59.2608 154.552 58.3018C152.96 57.3428 151.103 56.8633 148.981 56.8633C146.716 56.8633 144.727 57.4142 143.013 58.5161C141.299 59.5975 139.963 61.0258 139.004 62.801C138.065 64.5558 137.585 66.484 137.565 68.5857V75.1049C137.565 77.8391 138.065 80.1856 139.065 82.1444C140.065 84.0828 141.462 85.5724 143.258 86.613C145.053 87.6332 147.155 88.1433 149.563 88.1433C151.175 88.1433 152.634 87.9189 153.94 87.47C155.246 87.0007 156.378 86.3171 157.337 85.4193C158.296 84.5215 159.02 83.4095 159.51 82.0832L169.855 83.2463C169.202 85.9805 167.957 88.3678 166.121 90.4082C164.305 92.4283 161.979 93.9994 159.143 95.1216C156.307 96.2235 153.062 96.7744 149.41 96.7744ZM192.376 114.465C188.397 114.465 184.979 113.924 182.123 112.843C179.266 111.782 176.97 110.354 175.236 108.558C173.502 106.762 172.298 104.773 171.624 102.59L181.602 100.172C182.051 101.09 182.704 101.998 183.561 102.896C184.418 103.814 185.571 104.569 187.02 105.161C188.489 105.773 190.335 106.079 192.559 106.079C195.702 106.079 198.303 105.314 200.364 103.783C202.425 102.273 203.455 99.7841 203.455 96.3153V87.4088H202.904C202.333 88.5514 201.497 89.7247 200.395 90.9285C199.313 92.1324 197.875 93.1424 196.079 93.9586C194.304 94.7748 192.07 95.1829 189.376 95.1829C185.765 95.1829 182.49 94.3361 179.552 92.6425C176.634 90.9285 174.308 88.378 172.573 84.9908C170.859 81.5833 170.002 77.3188 170.002 72.1973C170.002 67.0349 170.859 62.6786 172.573 59.1282C174.308 55.5574 176.644 52.8538 179.582 51.0174C182.52 49.1606 185.795 48.2322 189.407 48.2322C192.162 48.2322 194.426 48.7015 196.202 49.6401C197.997 50.5583 199.426 51.6704 200.487 52.9763C201.548 54.2617 202.354 55.4758 202.904 56.6185H203.517V48.8444H214.443V96.6214C214.443 100.641 213.484 103.967 211.566 106.599C209.648 109.231 207.026 111.2 203.7 112.506C200.374 113.812 196.599 114.465 192.376 114.465ZM192.468 86.4906C194.814 86.4906 196.814 85.9192 198.466 84.7766C200.119 83.6339 201.374 81.9914 202.231 79.8489C203.088 77.7065 203.517 75.1355 203.517 72.136C203.517 69.1774 203.088 66.586 202.231 64.3619C201.395 62.1379 200.15 60.4137 198.497 59.1894C196.865 57.9447 194.855 57.3224 192.468 57.3224C189.999 57.3224 187.938 57.9652 186.285 59.2506C184.632 60.5361 183.388 62.3011 182.551 64.5456C181.714 66.7697 181.296 69.2998 181.296 72.136C181.296 75.0131 181.714 77.533 182.551 79.6959C183.408 81.8384 184.663 83.5115 186.316 84.7154C187.989 85.8988 190.039 86.4906 192.468 86.4906ZM229.121 68.3102V95.8562H218.041V33.1738H228.876V56.8327H229.427C230.529 54.1801 232.233 52.0887 234.538 50.5583C236.864 49.0076 239.823 48.2322 243.414 48.2322C246.679 48.2322 249.525 48.9158 251.953 50.2829C254.382 51.65 256.259 53.6496 257.585 56.2818C258.932 58.914 259.605 62.1277 259.605 65.9229V95.8562H248.526V67.6369C248.526 64.4742 247.709 62.0154 246.077 60.2607C244.465 58.4855 242.2 57.5979 239.282 57.5979C237.323 57.5979 235.569 58.0264 234.018 58.8834C232.488 59.7199 231.284 60.934 230.406 62.5255C229.549 64.1171 229.121 66.0453 229.121 68.3102ZM283.955 96.7744C279.241 96.7744 275.17 95.795 271.743 93.8362C268.335 91.8569 265.713 89.0615 263.877 85.4499C262.04 81.8179 261.122 77.5432 261.122 72.6257C261.122 67.7899 262.04 63.5458 263.877 59.8934C265.733 56.2206 268.325 53.364 271.651 51.3235C274.977 49.2627 278.884 48.2322 283.373 48.2322C286.27 48.2322 289.005 48.7015 291.576 49.6401C294.167 50.5583 296.452 51.9867 298.432 53.9251C300.431 55.8635 302.002 58.3324 303.145 61.3319C304.288 64.3109 304.859 67.8613 304.859 71.983V75.3803H266.325V67.9123H294.238C294.218 65.7903 293.759 63.9028 292.861 62.2501C291.963 60.5769 290.708 59.2608 289.096 58.3018C287.505 57.3428 285.648 56.8633 283.526 56.8633C281.261 56.8633 279.272 57.4142 277.558 58.5161C275.844 59.5975 274.507 61.0258 273.548 62.801C272.61 64.5558 272.13 66.484 272.11 68.5857V75.1049C272.11 77.8391 272.61 80.1856 273.61 82.1444C274.609 84.0828 276.007 85.5724 277.803 86.613C279.598 87.6332 281.7 88.1433 284.108 88.1433C285.72 88.1433 287.178 87.9189 288.484 87.47C289.79 87.0007 290.923 86.3171 291.882 85.4193C292.841 84.5215 293.565 83.4095 294.055 82.0832L304.4 83.2463C303.747 85.9805 302.502 88.3678 300.666 90.4082C298.85 92.4283 296.524 93.9994 293.687 95.1216C290.851 96.2235 287.607 96.7744 283.955 96.7744ZM329.951 48.8444V57.4142H302.925V48.8444H329.951ZM309.597 37.5811H320.677V81.7159C320.677 83.2054 320.901 84.3481 321.35 85.1439C321.819 85.9192 322.432 86.4498 323.186 86.7354C323.941 87.0211 324.778 87.1639 325.696 87.1639C326.39 87.1639 327.023 87.1129 327.594 87.0109C328.186 86.9089 328.634 86.817 328.941 86.7354L330.808 95.3971C330.216 95.6011 329.369 95.8256 328.267 96.0704C327.186 96.3153 325.859 96.4581 324.288 96.4989C321.513 96.5806 319.014 96.1623 316.79 95.2441C314.566 94.3055 312.801 92.8567 311.495 90.8979C310.209 88.9391 309.577 86.4906 309.597 83.5523V37.5811Z" fill="white"/>
<rect x="1.73237" y="1.43647" width="410.831" height="126.41" rx="12.9283" stroke="white" stroke-width="2.87295"/>
<path d="M18.9707 12.9282H53.9248C58.9764 12.9284 61.5689 18.9791 58.085 22.6372L40.9375 40.6411L22.9336 57.7886C19.2755 61.2725 13.2248 58.6801 13.2246 53.6284V18.6743C13.2246 15.5009 15.7973 12.9282 18.9707 12.9282Z" fill="white" stroke="white" stroke-width="2.87295"/>
<line x1="1.29297" y1="168.158" x2="413.694" y2="168.158" stroke="white" stroke-width="1.29592"/>
<line x1="0.647959" y1="161.031" x2="0.647959" y2="176.582" stroke="white" stroke-width="1.29592"/>
<line x1="414.342" y1="161.031" x2="414.342" y2="176.582" stroke="white" stroke-width="1.29592"/>
<line x1="452.571" y1="129.281" x2="437.02" y2="129.281" stroke="white" stroke-width="1.29592"/>
<line x1="452.571" y1="0.647959" x2="437.02" y2="0.647958" stroke="white" stroke-width="1.29592"/>
<path d="M188.159 150.49V160.857H186.281V152.317H186.22L183.795 153.866V152.145L186.372 150.49H188.159ZM193.34 161.055C192.506 161.055 191.791 160.844 191.194 160.422C190.6 159.997 190.142 159.384 189.822 158.584C189.505 157.781 189.346 156.814 189.346 155.684C189.349 154.553 189.51 153.591 189.827 152.798C190.148 152.002 190.605 151.394 191.199 150.976C191.796 150.557 192.51 150.348 193.34 150.348C194.17 150.348 194.884 150.557 195.481 150.976C196.079 151.394 196.536 152.002 196.853 152.798C197.174 153.595 197.334 154.556 197.334 155.684C197.334 156.818 197.174 157.786 196.853 158.589C196.536 159.389 196.079 160 195.481 160.422C194.887 160.844 194.174 161.055 193.34 161.055ZM193.34 159.47C193.988 159.47 194.499 159.151 194.874 158.513C195.252 157.872 195.441 156.929 195.441 155.684C195.441 154.86 195.355 154.168 195.183 153.608C195.011 153.048 194.768 152.626 194.454 152.343C194.14 152.056 193.769 151.912 193.34 151.912C192.695 151.912 192.186 152.233 191.811 152.874C191.437 153.512 191.248 154.448 191.244 155.684C191.241 156.51 191.324 157.206 191.492 157.769C191.664 158.333 191.907 158.758 192.221 159.045C192.535 159.328 192.908 159.47 193.34 159.47ZM201.565 161.055C200.732 161.055 200.016 160.844 199.419 160.422C198.825 159.997 198.368 159.384 198.047 158.584C197.73 157.781 197.571 156.814 197.571 155.684C197.574 154.553 197.735 153.591 198.052 152.798C198.373 152.002 198.83 151.394 199.424 150.976C200.021 150.557 200.735 150.348 201.565 150.348C202.395 150.348 203.109 150.557 203.706 150.976C204.304 151.394 204.761 152.002 205.078 152.798C205.399 153.595 205.559 154.556 205.559 155.684C205.559 156.818 205.399 157.786 205.078 158.589C204.761 159.389 204.304 160 203.706 160.422C203.112 160.844 202.399 161.055 201.565 161.055ZM201.565 159.47C202.213 159.47 202.724 159.151 203.099 158.513C203.477 157.872 203.666 156.929 203.666 155.684C203.666 154.86 203.58 154.168 203.408 153.608C203.236 153.048 202.993 152.626 202.679 152.343C202.365 152.056 201.994 151.912 201.565 151.912C200.921 151.912 200.411 152.233 200.036 152.874C199.662 153.512 199.473 154.448 199.469 155.684C199.466 156.51 199.549 157.206 199.717 157.769C199.89 158.333 200.133 158.758 200.446 159.045C200.76 159.328 201.133 159.47 201.565 159.47ZM208.231 160.857V153.082H209.983V154.403H210.074C210.236 153.957 210.504 153.61 210.879 153.36C211.254 153.107 211.701 152.98 212.22 152.98C212.747 152.98 213.191 153.109 213.552 153.365C213.916 153.618 214.173 153.964 214.321 154.403H214.402C214.574 153.971 214.865 153.627 215.273 153.37C215.685 153.11 216.172 152.98 216.736 152.98C217.451 152.98 218.035 153.207 218.487 153.659C218.94 154.111 219.166 154.771 219.166 155.638V160.857H217.328V155.922C217.328 155.439 217.2 155.086 216.943 154.864C216.687 154.637 216.373 154.524 216.002 154.524C215.56 154.524 215.214 154.663 214.964 154.939C214.718 155.213 214.595 155.569 214.595 156.008V160.857H212.797V155.846C212.797 155.444 212.676 155.123 212.433 154.884C212.193 154.644 211.88 154.524 211.491 154.524C211.228 154.524 210.989 154.592 210.773 154.727C210.557 154.858 210.384 155.046 210.256 155.289C210.128 155.528 210.064 155.808 210.064 156.129V160.857H208.231ZM219.742 160.857V153.082H221.493V154.403H221.584C221.746 153.957 222.015 153.61 222.389 153.36C222.764 153.107 223.211 152.98 223.731 152.98C224.257 152.98 224.701 153.109 225.062 153.365C225.427 153.618 225.683 153.964 225.832 154.403H225.913C226.085 153.971 226.375 153.627 226.783 153.37C227.195 153.11 227.683 152.98 228.246 152.98C228.962 152.98 229.546 153.207 229.998 153.659C230.45 154.111 230.676 154.771 230.676 155.638V160.857H228.839V155.922C228.839 155.439 228.71 155.086 228.454 154.864C228.197 154.637 227.883 154.524 227.512 154.524C227.07 154.524 226.724 154.663 226.475 154.939C226.228 155.213 226.105 155.569 226.105 156.008V160.857H224.308V155.846C224.308 155.444 224.186 155.123 223.943 154.884C223.704 154.644 223.39 154.524 223.002 154.524C222.739 154.524 222.499 154.592 222.283 154.727C222.067 154.858 221.895 155.046 221.767 155.289C221.638 155.528 221.574 155.808 221.574 156.129V160.857H219.742ZM233.682 157.967C233.666 157.352 233.747 156.841 233.925 156.433C234.108 156.024 234.361 155.719 234.685 155.517C235.012 155.311 235.387 155.208 235.809 155.208C236.136 155.208 236.443 155.277 236.73 155.415C237.017 155.55 237.346 155.781 237.717 156.109C237.93 156.291 238.105 156.428 238.243 156.519C238.382 156.61 238.54 156.656 238.719 156.656C238.976 156.656 239.183 156.558 239.342 156.362C239.504 156.163 239.58 155.862 239.57 155.461H241.038C241.055 156.072 240.97 156.581 240.785 156.99C240.602 157.398 240.348 157.705 240.02 157.911C239.693 158.113 239.323 158.215 238.912 158.215C238.574 158.215 238.26 158.144 237.97 158.002C237.68 157.86 237.354 157.633 236.993 157.319C236.77 157.123 236.591 156.983 236.456 156.899C236.325 156.814 236.171 156.772 235.996 156.772C235.749 156.772 235.544 156.865 235.378 157.05C235.216 157.233 235.139 157.538 235.145 157.967H233.682Z" fill="white"/>
<path d="M457.213 75.4684C456.484 75.4684 455.836 75.3435 455.269 75.0938C454.706 74.8441 454.26 74.4965 453.933 74.051C453.606 73.6055 453.432 73.0909 453.412 72.507H455.315C455.332 72.7871 455.425 73.0318 455.593 73.241C455.762 73.4469 455.987 73.6072 456.267 73.7219C456.547 73.8367 456.861 73.8941 457.208 73.8941C457.579 73.8941 457.909 73.8299 458.195 73.7017C458.482 73.5701 458.707 73.3878 458.869 73.155C459.031 72.9221 459.11 72.6538 459.107 72.3501C459.11 72.0362 459.029 71.7595 458.864 71.5199C458.698 71.2803 458.459 71.093 458.145 70.958C457.834 70.823 457.46 70.7555 457.021 70.7555H456.105V69.3077H457.021C457.382 69.3077 457.698 69.2453 457.968 69.1204C458.241 68.9956 458.455 68.8201 458.61 68.594C458.766 68.3645 458.842 68.0996 458.838 67.7992C458.842 67.5056 458.776 67.2508 458.641 67.0348C458.509 66.8154 458.322 66.645 458.079 66.5235C457.839 66.402 457.558 66.3413 457.234 66.3413C456.916 66.3413 456.623 66.3987 456.353 66.5134C456.083 66.6281 455.865 66.7918 455.7 67.0044C455.534 67.2137 455.447 67.4634 455.436 67.7536H453.629C453.643 67.1732 453.81 66.6636 454.13 66.2249C454.454 65.7828 454.886 65.4385 455.426 65.1922C455.966 64.9424 456.572 64.8176 457.244 64.8176C457.936 64.8176 458.536 64.9475 459.046 65.2074C459.559 65.4638 459.955 65.8098 460.235 66.2451C460.516 66.6805 460.656 67.1614 460.656 67.6878C460.659 68.2717 460.487 68.761 460.139 69.1559C459.795 69.5507 459.343 69.8089 458.783 69.9304V70.0114C459.512 70.1126 460.07 70.3826 460.458 70.8213C460.85 71.2567 461.044 71.7983 461.04 72.4463C461.04 73.0267 460.875 73.5465 460.544 74.0054C460.217 74.461 459.765 74.8188 459.188 75.0786C458.614 75.3385 457.956 75.4684 457.213 75.4684ZM465.327 75.5241C464.493 75.5241 463.778 75.3132 463.181 74.8913C462.587 74.4661 462.129 73.8536 461.809 73.0537C461.492 72.2505 461.333 71.2837 461.333 70.1531C461.336 69.0226 461.497 68.0607 461.814 67.2677C462.134 66.4712 462.592 65.8638 463.186 65.4453C463.783 65.0268 464.497 64.8176 465.327 64.8176C466.157 64.8176 466.871 65.0268 467.468 65.4453C468.066 65.8638 468.523 66.4712 468.84 67.2677C469.161 68.0641 469.321 69.0259 469.321 70.1531C469.321 71.287 469.161 72.2556 468.84 73.0588C468.523 73.8586 468.066 74.4695 467.468 74.8913C466.874 75.3132 466.161 75.5241 465.327 75.5241ZM465.327 73.9396C465.975 73.9396 466.486 73.6207 466.861 72.9829C467.239 72.3417 467.428 71.3984 467.428 70.1531C467.428 69.3297 467.342 68.6378 467.17 68.0776C466.998 67.5174 466.755 67.0956 466.441 66.8121C466.127 66.5252 465.756 66.3818 465.327 66.3818C464.682 66.3818 464.173 66.7024 463.798 67.3436C463.424 67.9814 463.235 68.9179 463.231 70.1531C463.228 70.9799 463.311 71.6751 463.479 72.2387C463.651 72.8023 463.894 73.2275 464.208 73.5144C464.522 73.7979 464.895 73.9396 465.327 73.9396ZM471.993 75.3267V67.5511H473.745V68.8724H473.836C473.998 68.4269 474.266 68.0793 474.641 67.8296C475.015 67.5765 475.463 67.4499 475.982 67.4499C476.509 67.4499 476.953 67.5781 477.314 67.8346C477.678 68.0877 477.935 68.4337 478.083 68.8724H478.164C478.336 68.4404 478.626 68.0962 479.035 67.8397C479.446 67.5798 479.934 67.4499 480.498 67.4499C481.213 67.4499 481.797 67.676 482.249 68.1282C482.701 68.5805 482.928 69.2402 482.928 70.1076V75.3267H481.09V70.391C481.09 69.9084 480.962 69.5558 480.705 69.333C480.449 69.1069 480.135 68.9939 479.764 68.9939C479.322 68.9939 478.976 69.1322 478.726 69.409C478.48 69.6823 478.356 70.0384 478.356 70.4771V75.3267H476.559V70.3151C476.559 69.9135 476.438 69.5929 476.195 69.3533C475.955 69.1137 475.641 68.9939 475.253 68.9939C474.99 68.9939 474.75 69.0614 474.534 69.1964C474.318 69.328 474.146 69.5153 474.018 69.7583C473.89 69.9979 473.826 70.278 473.826 70.5986V75.3267H471.993ZM483.504 75.3267V67.5511H485.255V68.8724H485.346C485.508 68.4269 485.777 68.0793 486.151 67.8296C486.526 67.5765 486.973 67.4499 487.493 67.4499C488.019 67.4499 488.463 67.5781 488.824 67.8346C489.189 68.0877 489.445 68.4337 489.593 68.8724H489.674C489.847 68.4404 490.137 68.0962 490.545 67.8397C490.957 67.5798 491.445 67.4499 492.008 67.4499C492.724 67.4499 493.307 67.676 493.76 68.1282C494.212 68.5805 494.438 69.2402 494.438 70.1076V75.3267H492.6V70.391C492.6 69.9084 492.472 69.5558 492.216 69.333C491.959 69.1069 491.645 68.9939 491.274 68.9939C490.832 68.9939 490.486 69.1322 490.236 69.409C489.99 69.6823 489.867 70.0384 489.867 70.4771V75.3267H488.07V70.3151C488.07 69.9135 487.948 69.5929 487.705 69.3533C487.466 69.1137 487.152 68.9939 486.764 68.9939C486.501 68.9939 486.261 69.0614 486.045 69.1964C485.829 69.328 485.657 69.5153 485.529 69.7583C485.4 69.9979 485.336 70.278 485.336 70.5986V75.3267H483.504ZM497.444 72.4362C497.427 71.8219 497.508 71.3107 497.687 70.9023C497.87 70.494 498.123 70.1885 498.447 69.9861C498.774 69.7802 499.149 69.6773 499.57 69.6773C499.898 69.6773 500.205 69.7464 500.492 69.8848C500.779 70.0198 501.108 70.251 501.479 70.5783C501.691 70.7606 501.867 70.8973 502.005 70.9884C502.144 71.0795 502.302 71.125 502.481 71.125C502.738 71.125 502.945 71.0272 503.104 70.8314C503.266 70.6323 503.342 70.332 503.332 69.9304H504.8C504.817 70.5412 504.732 71.0508 504.547 71.4592C504.364 71.8675 504.109 72.1746 503.782 72.3805C503.455 72.583 503.085 72.6842 502.674 72.6842C502.336 72.6842 502.022 72.6133 501.732 72.4716C501.442 72.3298 501.116 72.1021 500.755 71.7882C500.532 71.5925 500.353 71.4524 500.218 71.368C500.087 71.2837 499.933 71.2415 499.758 71.2415C499.511 71.2415 499.305 71.3343 499.14 71.5199C498.978 71.7021 498.901 72.0076 498.907 72.4362H497.444Z" fill="white"/>
<path d="M445.444 1L445.444 128.633" stroke="white" stroke-width="1.29592"/>
</svg>
