<svg width="1440" height="654" viewBox="0 0 1440 654" fill="none" xmlns="http://www.w3.org/2000/svg">
<path d="M222.338 528.751C190.427 528.751 163.11 522.433 140.389 509.796C117.668 497.031 100.244 479.288 88.1177 456.567C75.9913 433.718 69.9281 407.231 69.9281 377.107C69.9281 346.982 75.9913 320.559 88.1177 297.838C100.244 274.99 117.668 257.247 140.389 244.61C163.11 231.845 190.427 225.463 222.338 225.463C251.186 225.463 276.141 230.696 297.203 241.163C318.392 251.503 334.795 266.182 346.411 285.201C358.027 304.093 363.898 326.303 364.026 351.833H265.993C264.589 336.388 260.122 324.644 252.59 316.602C245.187 308.433 235.613 304.348 223.87 304.348C214.679 304.348 206.638 307.029 199.745 312.39C192.852 317.623 187.491 325.601 183.661 336.324C179.832 346.918 177.917 360.257 177.917 376.341C177.917 392.424 179.832 405.827 183.661 416.55C187.491 427.144 192.852 435.122 199.745 440.483C206.638 445.717 214.679 448.334 223.87 448.334C231.656 448.334 238.549 446.547 244.549 442.973C250.548 439.271 255.399 433.91 259.1 426.889C262.93 419.741 265.227 411.061 265.993 400.849H364.026C363.643 426.761 357.707 449.355 346.219 468.629C334.731 487.776 318.456 502.583 297.394 513.051C276.46 523.518 251.442 528.751 222.338 528.751ZM549.811 394.722V229.292H655.503V523.39H555.172V467.481H552.109C545.727 486.245 534.557 500.924 518.602 511.519C502.646 521.986 483.69 527.219 461.735 527.219C441.184 527.219 423.186 522.496 407.74 513.051C392.423 503.605 380.488 490.585 371.936 473.991C363.511 457.397 359.235 438.377 359.107 416.933V229.292H464.799V394.722C464.926 409.274 468.628 420.698 475.904 428.995C483.307 437.292 493.647 441.441 506.922 441.441C515.73 441.441 523.325 439.59 529.707 435.888C536.217 432.059 541.195 426.698 544.642 419.805C548.216 412.784 549.939 404.423 549.811 394.722ZM660.732 633.677V229.292H765.657V280.606H767.955C771.784 270.65 777.401 261.523 784.804 253.226C792.208 244.801 801.398 238.1 812.376 233.121C823.354 228.016 836.118 225.463 850.67 225.463C870.072 225.463 888.517 230.632 906.005 240.972C923.62 251.311 937.916 267.586 948.894 289.797C959.999 312.007 965.552 340.855 965.552 376.341C965.552 410.295 960.255 438.441 949.66 460.779C939.193 483.117 925.152 499.775 907.536 510.753C890.049 521.73 870.838 527.219 849.904 527.219C836.118 527.219 823.8 524.985 812.95 520.518C802.228 515.923 793.037 509.732 785.379 501.945C777.848 494.031 772.04 485.096 767.955 475.139H766.423V633.677H660.732ZM764.125 376.341C764.125 390.637 765.976 403.019 769.678 413.486C773.508 423.826 778.869 431.867 785.762 437.611C792.782 443.228 801.143 446.036 810.844 446.036C820.545 446.036 828.779 443.292 835.544 437.803C842.437 432.186 847.67 424.208 851.244 413.869C854.946 403.402 856.797 390.893 856.797 376.341C856.797 361.789 854.946 349.344 851.244 339.004C847.67 328.537 842.437 320.559 835.544 315.071C828.779 309.454 820.545 306.646 810.844 306.646C801.143 306.646 792.782 309.454 785.762 315.071C778.869 320.559 773.508 328.537 769.678 339.004C765.976 349.344 764.125 361.789 764.125 376.341ZM961.303 523.39V229.292H1063.93V285.201H1066.99C1072.36 264.522 1080.84 249.396 1092.46 239.823C1104.2 230.249 1117.93 225.463 1133.63 225.463C1138.22 225.463 1142.75 225.846 1147.22 226.611C1151.82 227.25 1156.22 228.207 1160.43 229.483V319.666C1155.2 317.879 1148.75 316.538 1141.09 315.645C1133.43 314.751 1126.86 314.305 1121.37 314.305C1111.03 314.305 1101.71 316.666 1093.42 321.389C1085.25 325.984 1078.8 332.494 1074.08 340.919C1069.36 349.216 1066.99 358.981 1066.99 370.214V523.39H961.303ZM1271.4 528.751C1239.49 528.751 1212.17 522.433 1189.45 509.796C1166.73 497.031 1149.31 479.288 1137.18 456.567C1125.05 433.718 1118.99 407.231 1118.99 377.107C1118.99 346.982 1125.05 320.559 1137.18 297.838C1149.31 274.99 1166.73 257.247 1189.45 244.61C1212.17 231.845 1239.49 225.463 1271.4 225.463C1303.31 225.463 1330.63 231.845 1353.35 244.61C1376.07 257.247 1393.49 274.99 1405.62 297.838C1417.75 320.559 1423.81 346.982 1423.81 377.107C1423.81 407.231 1417.75 433.718 1405.62 456.567C1393.49 479.288 1376.07 497.031 1353.35 509.796C1330.63 522.433 1303.31 528.751 1271.4 528.751ZM1272.17 450.631C1281.1 450.631 1288.82 447.632 1295.33 441.632C1301.84 435.633 1306.89 427.08 1310.46 415.975C1314.03 404.87 1315.82 391.659 1315.82 376.341C1315.82 360.896 1314.03 347.684 1310.46 336.707C1306.89 325.601 1301.84 317.049 1295.33 311.05C1288.82 305.05 1281.1 302.051 1272.17 302.051C1262.72 302.051 1254.61 305.05 1247.85 311.05C1241.08 317.049 1235.91 325.601 1232.34 336.707C1228.77 347.684 1226.98 360.896 1226.98 376.341C1226.98 391.659 1228.77 404.87 1232.34 415.975C1235.91 427.08 1241.08 435.633 1247.85 441.632C1254.61 447.632 1262.72 450.631 1272.17 450.631Z" fill="#0C0C0C"/>
<path d="M97.5942 360.311C74.1628 360.305 41.4116 339.511 18.6619 360.311C-6.22063 383.061 -6.22063 423.893 18.6619 446.643C41.4116 467.443 75.3962 446.643 97.5942 446.643" stroke="black" stroke-width="32.0663"/>
</svg>
