<svg width="90" height="26" viewBox="0 0 90 26" fill="none" xmlns="http://www.w3.org/2000/svg">
<path d="M26.3377 14.9555L26.4929 12.2234L24.1992 13.7278L23.3762 12.2976L25.825 11.0698L23.3762 9.84204L24.1992 8.41188L26.4929 9.91625L26.3377 7.1841H27.977L27.8286 9.91625L30.1222 8.41188L30.9453 9.84204L28.4897 11.0698L30.9453 12.2976L30.1222 13.7278L27.8286 12.2234L27.977 14.9555H26.3377ZM34.9427 14.9555L35.0979 12.2234L32.8042 13.7278L31.9812 12.2976L34.43 11.0698L31.9812 9.84204L32.8042 8.41188L35.0979 9.91625L34.9427 7.1841H36.582L36.4336 9.91625L38.7272 8.41188L39.5502 9.84204L37.0947 11.0698L39.5502 12.2976L38.7272 13.7278L36.4336 12.2234L36.582 14.9555H34.9427ZM43.5477 14.9555L43.7028 12.2234L41.4092 13.7278L40.5862 12.2976L43.035 11.0698L40.5862 9.84204L41.4092 8.41188L43.7028 9.91625L43.5477 7.1841H45.187L45.0386 9.91625L47.3322 8.41188L48.1552 9.84204L45.6997 11.0698L48.1552 12.2976L47.3322 13.7278L45.0386 12.2234L45.187 14.9555H43.5477ZM52.1527 14.9555L52.3078 12.2234L50.0142 13.7278L49.1912 12.2976L51.64 11.0698L49.1912 9.84204L50.0142 8.41188L52.3078 9.91625L52.1527 7.1841H53.792L53.6435 9.91625L55.9372 8.41188L56.7602 9.84204L54.3047 11.0698L56.7602 12.2976L55.9372 13.7278L53.6435 12.2234L53.792 14.9555H52.1527ZM60.7577 14.9555L60.9128 12.2234L58.6192 13.7278L57.7961 12.2976L60.245 11.0698L57.7961 9.84204L58.6192 8.41188L60.9128 9.91625L60.7577 7.1841H62.3969L62.2485 9.91625L64.5422 8.41188L65.3652 9.84204L62.9096 11.0698L65.3652 12.2976L64.5422 13.7278L62.2485 12.2234L62.3969 14.9555H60.7577Z" fill="black"/>
<rect x="0.5" y="0.5" width="89" height="21.8483" rx="2.28638" stroke="#0C0C0C"/>
<path d="M3.62262 2.64636H10.4029C11.2599 2.64673 11.6997 3.67301 11.1089 4.29382L7.78473 7.78406L4.29449 11.1083C3.67368 11.699 2.6474 11.2592 2.64703 10.4022V3.62195C2.64703 3.08334 3.08401 2.64636 3.62262 2.64636Z" fill="black" stroke="black" stroke-width="0.835913"/>
</svg>
