<svg width="1039" height="728" viewBox="0 0 1039 728" fill="none" xmlns="http://www.w3.org/2000/svg">
<rect x="730.368" y="558.866" width="320" height="79" rx="8.5" transform="rotate(16.5499 730.368 558.866)" stroke="#0C0C0C" stroke-width="3"/>
<path d="M739.113 569.81L762.438 576.741C765.388 577.618 765.852 581.601 763.183 583.133L748.18 591.74L732.777 599.608C730.036 601.007 726.953 598.443 727.83 595.493L734.761 572.168C735.312 570.315 737.26 569.26 739.113 569.81Z" fill="black" stroke="black" stroke-width="3"/>
<path d="M762.765 601.663L763.145 600.903C763.258 600.678 763.417 600.454 763.623 600.23C763.832 600.007 764.071 599.805 764.34 599.624C764.612 599.444 764.896 599.305 765.192 599.208L765.596 599.81C765.318 599.998 765.056 600.202 764.808 600.423C764.561 600.644 764.364 600.905 764.22 601.208L763.835 601.982L762.765 601.663ZM764.898 602.297L765.278 601.537C765.391 601.312 765.55 601.088 765.756 600.864C765.965 600.641 766.204 600.438 766.473 600.258C766.745 600.077 767.029 599.939 767.325 599.842L767.729 600.444C767.451 600.632 767.189 600.836 766.941 601.057C766.694 601.277 766.497 601.539 766.353 601.842L765.968 602.615L764.898 602.297ZM773.453 601.927L774.75 602.312L772.143 607.668C771.868 608.239 771.481 608.702 770.984 609.058C770.487 609.411 769.922 609.638 769.289 609.738C768.656 609.835 767.998 609.782 767.315 609.579C766.629 609.375 766.092 609.073 765.705 608.673C765.318 608.269 765.09 607.807 765.02 607.286C764.954 606.762 765.06 606.216 765.339 605.646L767.945 600.29L769.238 600.674L766.679 605.931C766.502 606.3 766.429 606.653 766.46 606.99C766.493 607.327 766.626 607.625 766.859 607.882C767.096 608.138 767.431 608.33 767.866 608.459C768.301 608.589 768.716 608.619 769.109 608.551C769.506 608.481 769.858 608.327 770.165 608.091C770.475 607.855 770.718 607.553 770.895 607.183L773.453 601.927ZM774.517 607.413L772.756 611.041L771.505 610.669L774.485 604.564L775.685 604.92L775.199 605.914L775.278 605.937C775.584 605.655 775.943 605.464 776.354 605.365C776.77 605.264 777.219 605.285 777.701 605.428C778.136 605.558 778.474 605.758 778.715 606.03C778.959 606.3 779.089 606.633 779.105 607.029C779.124 607.426 779.011 607.876 778.767 608.38L776.867 612.263L775.617 611.891L777.443 608.151C777.656 607.708 777.703 607.325 777.583 607.005C777.467 606.682 777.195 606.457 776.769 606.33C776.479 606.244 776.191 606.227 775.905 606.278C775.623 606.331 775.36 606.453 775.118 606.645C774.88 606.835 774.679 607.091 774.517 607.413ZM782.234 613.999C781.623 613.817 781.154 613.526 780.827 613.125C780.501 612.722 780.329 612.243 780.312 611.689C780.298 611.132 780.446 610.535 780.754 609.895C781.056 609.268 781.439 608.757 781.906 608.362C782.375 607.967 782.893 607.707 783.458 607.581C784.026 607.455 784.609 607.481 785.206 607.658C785.816 607.84 786.283 608.132 786.607 608.534C786.933 608.938 787.104 609.418 787.121 609.975C787.137 610.532 786.991 611.132 786.681 611.775C786.382 612.396 785.996 612.903 785.524 613.297C785.055 613.689 784.538 613.948 783.973 614.074C783.407 614.2 782.828 614.175 782.234 613.999ZM782.617 612.97C783.018 613.089 783.4 613.087 783.761 612.964C784.125 612.842 784.454 612.633 784.748 612.338C785.042 612.043 785.286 611.697 785.48 611.299C785.664 610.914 785.773 610.544 785.805 610.19C785.841 609.833 785.782 609.521 785.628 609.254C785.474 608.987 785.206 608.796 784.824 608.683C784.422 608.563 784.038 608.566 783.67 608.69C783.306 608.813 782.976 609.023 782.682 609.321C782.39 609.619 782.148 609.968 781.957 610.366C781.773 610.748 781.664 611.118 781.627 611.474C781.592 611.828 781.652 612.137 781.807 612.402C781.962 612.666 782.232 612.856 782.617 612.97ZM787.11 618.074C786.597 617.921 786.187 617.727 785.881 617.49C785.578 617.254 785.36 616.997 785.228 616.718C785.098 616.44 785.034 616.158 785.037 615.874L786.323 615.774C786.342 615.913 786.382 616.066 786.442 616.232C786.5 616.401 786.614 616.564 786.783 616.721C786.955 616.878 787.215 617.008 787.564 617.112C788.038 617.253 788.486 617.26 788.909 617.134C789.331 617.01 789.659 616.71 789.891 616.233L790.463 615.029L790.384 615.005C790.248 615.113 790.072 615.226 789.855 615.344C789.638 615.462 789.379 615.542 789.078 615.586C788.776 615.63 788.429 615.594 788.036 615.477C787.529 615.326 787.126 615.078 786.828 614.731C786.534 614.383 786.377 613.952 786.357 613.44C786.337 612.924 786.486 612.341 786.803 611.692C787.117 611.042 787.503 610.52 787.961 610.125C788.421 609.73 788.914 609.47 789.44 609.344C789.969 609.217 790.492 609.229 791.008 609.383C791.406 609.501 791.697 609.66 791.881 609.86C792.068 610.059 792.189 610.262 792.246 610.47C792.302 610.678 792.336 610.856 792.346 611.005L792.438 611.032L792.919 610.042L794.145 610.406L791.106 616.649C790.853 617.174 790.516 617.567 790.096 617.828C789.678 618.089 789.211 618.236 788.695 618.267C788.182 618.3 787.653 618.235 787.11 618.074ZM788.771 614.567C789.128 614.673 789.47 614.683 789.799 614.599C790.131 614.513 790.437 614.34 790.718 614.08C790.999 613.818 791.242 613.476 791.446 613.054C791.647 612.643 791.756 612.261 791.773 611.908C791.792 611.556 791.717 611.255 791.546 611.003C791.378 610.75 791.114 610.57 790.755 610.463C790.376 610.351 790.018 610.351 789.681 610.463C789.345 610.572 789.04 610.767 788.765 611.047C788.494 611.327 788.262 611.662 788.071 612.051C787.879 612.452 787.77 612.822 787.746 613.16C787.724 613.5 787.795 613.791 787.959 614.034C788.124 614.277 788.394 614.455 788.771 614.567ZM793.318 619.919C792.805 619.766 792.396 619.572 792.09 619.335C791.787 619.1 791.569 618.842 791.436 618.563C791.307 618.285 791.243 618.003 791.246 617.719L792.532 617.619C792.551 617.758 792.591 617.911 792.65 618.077C792.709 618.246 792.823 618.409 792.992 618.566C793.164 618.723 793.424 618.853 793.773 618.957C794.247 619.098 794.695 619.105 795.118 618.979C795.54 618.855 795.867 618.555 796.1 618.078L796.672 616.874L796.593 616.85C796.457 616.958 796.281 617.071 796.064 617.189C795.847 617.307 795.588 617.387 795.287 617.431C794.985 617.475 794.638 617.439 794.245 617.322C793.737 617.171 793.335 616.923 793.037 616.576C792.743 616.228 792.586 615.797 792.565 615.285C792.546 614.769 792.694 614.187 793.012 613.537C793.326 612.887 793.712 612.365 794.169 611.97C794.629 611.575 795.122 611.315 795.648 611.189C796.178 611.062 796.701 611.074 797.217 611.228C797.615 611.346 797.906 611.505 798.089 611.705C798.276 611.904 798.398 612.107 798.455 612.315C798.511 612.523 798.545 612.701 798.555 612.85L798.647 612.877L799.128 611.887L800.353 612.251L797.315 618.494C797.062 619.019 796.725 619.412 796.305 619.673C795.887 619.934 795.42 620.081 794.904 620.112C794.391 620.145 793.862 620.08 793.318 619.919ZM794.98 616.412C795.336 616.518 795.679 616.528 796.008 616.444C796.34 616.358 796.646 616.185 796.927 615.925C797.208 615.663 797.451 615.321 797.655 614.899C797.856 614.488 797.965 614.106 797.982 613.753C798.001 613.401 797.926 613.1 797.754 612.848C797.587 612.595 797.323 612.415 796.964 612.308C796.584 612.196 796.226 612.196 795.89 612.308C795.554 612.417 795.248 612.612 794.974 612.892C794.703 613.172 794.471 613.507 794.28 613.896C794.088 614.297 793.979 614.667 793.955 615.006C793.933 615.345 794.004 615.636 794.168 615.879C794.333 616.122 794.603 616.3 794.98 616.412ZM800.704 619.487C800.074 619.3 799.593 619.01 799.261 618.617C798.932 618.222 798.759 617.753 798.741 617.211C798.724 616.666 798.87 616.076 799.18 615.443C799.484 614.817 799.875 614.303 800.353 613.898C800.832 613.494 801.358 613.224 801.932 613.089C802.509 612.954 803.096 612.975 803.693 613.152C804.055 613.26 804.379 613.421 804.664 613.636C804.952 613.852 805.171 614.122 805.32 614.446C805.47 614.769 805.527 615.149 805.492 615.585C805.46 616.018 805.31 616.512 805.042 617.067L804.839 617.489L799.729 615.97L800.153 615.077L804.035 616.23C804.191 615.919 804.262 615.623 804.248 615.343C804.235 615.06 804.142 614.812 803.968 614.599C803.798 614.388 803.549 614.234 803.223 614.137C802.888 614.037 802.55 614.032 802.208 614.122C801.866 614.211 801.556 614.364 801.28 614.579C801.007 614.792 800.803 615.035 800.668 615.307L800.266 616.121C800.055 616.568 799.955 616.948 799.969 617.261C799.984 617.576 800.099 617.834 800.312 618.037C800.524 618.24 800.819 618.397 801.195 618.509C801.438 618.581 801.672 618.614 801.899 618.609C802.128 618.601 802.344 618.555 802.546 618.469C802.748 618.38 802.934 618.25 803.103 618.079L804.185 618.633C803.928 618.936 803.617 619.176 803.252 619.352C802.888 619.526 802.489 619.628 802.056 619.657C801.626 619.684 801.176 619.627 800.704 619.487ZM809.845 615.071L809.383 616.026L805.874 614.984L806.336 614.028L809.845 615.071ZM807.985 612.844L809.235 613.215L806.418 618.991C806.306 619.222 806.259 619.407 806.276 619.545C806.293 619.681 806.349 619.787 806.445 619.864C806.544 619.939 806.662 619.997 806.798 620.037C806.899 620.067 806.989 620.086 807.068 620.095C807.148 620.103 807.211 620.11 807.258 620.115L807.018 621.168C806.926 621.171 806.805 621.165 806.654 621.151C806.506 621.14 806.331 621.106 806.129 621.049C805.798 620.957 805.519 620.81 805.29 620.609C805.063 620.405 804.921 620.156 804.866 619.864C804.811 619.568 804.874 619.237 805.057 618.869L807.985 612.844ZM813.167 616.058L812.705 617.014L809.196 615.971L809.658 615.016L813.167 616.058ZM811.307 613.831L812.557 614.202L809.74 619.978C809.628 620.209 809.581 620.394 809.598 620.532C809.615 620.668 809.671 620.774 809.767 620.851C809.866 620.926 809.984 620.984 810.12 621.025C810.221 621.055 810.311 621.074 810.39 621.082C810.47 621.09 810.533 621.097 810.58 621.102L810.34 622.155C810.248 622.158 810.127 622.152 809.976 622.138C809.828 622.127 809.653 622.093 809.451 622.036C809.12 621.944 808.841 621.798 808.613 621.596C808.385 621.392 808.243 621.144 808.188 620.851C808.133 620.555 808.196 620.224 808.379 619.856L811.307 613.831ZM813.138 623.182C812.527 623.001 812.059 622.71 811.732 622.309C811.405 621.906 811.234 621.427 811.216 620.872C811.203 620.316 811.35 619.718 811.658 619.078C811.96 618.452 812.344 617.941 812.81 617.545C813.28 617.151 813.797 616.89 814.362 616.764C814.931 616.639 815.513 616.665 816.11 616.842C816.721 617.023 817.188 617.315 817.511 617.718C817.837 618.121 818.008 618.602 818.025 619.159C818.041 619.716 817.895 620.316 817.586 620.958C817.286 621.579 816.9 622.086 816.428 622.48C815.96 622.872 815.443 623.131 814.877 623.257C814.312 623.384 813.732 623.359 813.138 623.182ZM813.521 622.154C813.923 622.273 814.304 622.271 814.665 622.148C815.029 622.025 815.358 621.816 815.652 621.522C815.946 621.227 816.19 620.88 816.384 620.483C816.569 620.098 816.677 619.728 816.71 619.373C816.746 619.017 816.687 618.705 816.532 618.438C816.378 618.17 816.11 617.98 815.728 617.866C815.327 617.747 814.942 617.75 814.574 617.874C814.21 617.996 813.881 618.206 813.586 618.504C813.294 618.803 813.052 619.151 812.861 619.55C812.678 619.932 812.568 620.301 812.532 620.658C812.496 621.012 812.556 621.321 812.711 621.585C812.866 621.85 813.136 622.039 813.521 622.154ZM824.571 619.447L824.11 620.403L820.48 619.324L820.941 618.369L824.571 619.447ZM818.957 624.77L822.283 617.957C822.464 617.574 822.704 617.283 823.003 617.083C823.302 616.881 823.628 616.761 823.979 616.722C824.331 616.681 824.677 616.711 825.018 616.813C825.268 616.887 825.473 616.971 825.63 617.063C825.792 617.153 825.906 617.227 825.974 617.284L825.218 618.16C825.167 618.127 825.102 618.086 825.022 618.038C824.943 617.987 824.838 617.943 824.707 617.904C824.403 617.813 824.151 617.82 823.95 617.924C823.752 618.029 823.584 618.216 823.446 618.485L820.207 625.142L818.957 624.77ZM821.822 625.622L824.802 619.516L826.052 619.887L823.073 625.993L821.822 625.622ZM825.987 618.776C825.769 618.711 825.607 618.584 825.499 618.394C825.395 618.202 825.379 618.006 825.451 617.806C825.523 617.603 825.662 617.453 825.867 617.356C826.072 617.256 826.282 617.239 826.497 617.302C826.715 617.367 826.875 617.495 826.979 617.687C827.084 617.876 827.101 618.072 827.032 618.276C826.96 618.476 826.821 618.626 826.616 618.726C826.414 618.824 826.204 618.84 825.987 618.776ZM830.763 622.994L829.536 622.848C829.555 622.693 829.545 622.538 829.506 622.384C829.47 622.23 829.385 622.09 829.253 621.963C829.122 621.833 828.927 621.729 828.667 621.652C828.308 621.545 827.968 621.534 827.649 621.618C827.332 621.703 827.117 621.867 827.002 622.109C826.905 622.304 826.904 622.486 827 622.654C827.096 622.819 827.301 622.994 827.613 623.178L828.531 623.705C829.059 624.011 829.403 624.345 829.562 624.708C829.725 625.069 829.7 625.468 829.488 625.906C829.31 626.269 829.042 626.558 828.684 626.773C828.329 626.989 827.917 627.119 827.449 627.162C826.981 627.205 826.491 627.15 825.978 626.998C825.247 626.78 824.724 626.457 824.409 626.026C824.094 625.596 824.015 625.096 824.172 624.527L825.465 624.71C825.393 625.032 825.435 625.304 825.591 625.526C825.75 625.747 826.012 625.911 826.377 626.019C826.795 626.147 827.171 626.163 827.505 626.068C827.84 625.973 828.065 625.805 828.179 625.563C828.271 625.375 828.276 625.197 828.192 625.029C828.111 624.863 827.929 624.699 827.646 624.539L826.679 623.993C826.14 623.684 825.796 623.342 825.646 622.966C825.497 622.591 825.529 622.185 825.744 621.748C825.917 621.39 826.174 621.11 826.513 620.907C826.856 620.703 827.249 620.581 827.691 620.543C828.134 620.501 828.595 620.552 829.075 620.695C829.775 620.903 830.256 621.209 830.517 621.615C830.78 622.018 830.862 622.477 830.763 622.994ZM828.949 627.74L831.929 621.634L833.179 622.005L830.2 628.111L828.949 627.74ZM833.114 620.893C832.896 620.829 832.734 620.702 832.626 620.512C832.522 620.32 832.506 620.124 832.578 619.924C832.65 619.721 832.789 619.571 832.994 619.474C833.199 619.374 833.41 619.356 833.624 619.42C833.842 619.485 834.002 619.613 834.106 619.805C834.211 619.994 834.228 620.19 834.159 620.394C834.087 620.594 833.949 620.744 833.743 620.844C833.541 620.941 833.331 620.958 833.114 620.893ZM833.473 629.225C832.848 629.039 832.378 628.746 832.063 628.346C831.749 627.943 831.588 627.469 831.58 626.924C831.572 626.378 831.717 625.799 832.015 625.187C832.314 624.566 832.702 624.054 833.176 623.652C833.654 623.248 834.182 622.978 834.759 622.843C835.339 622.709 835.932 622.732 836.537 622.912C837.025 623.057 837.417 623.272 837.715 623.558C838.013 623.841 838.205 624.171 838.29 624.548C838.375 624.925 838.341 625.326 838.187 625.751L836.97 625.389C837.04 625.082 837.006 624.79 836.867 624.512C836.728 624.234 836.46 624.036 836.064 623.919C835.716 623.815 835.368 623.812 835.021 623.909C834.674 624.003 834.35 624.189 834.049 624.467C833.749 624.742 833.495 625.097 833.286 625.533C833.069 625.978 832.953 626.383 832.938 626.749C832.924 627.115 833.004 627.426 833.18 627.681C833.356 627.937 833.62 628.117 833.971 628.221C834.211 628.293 834.447 628.316 834.679 628.291C834.914 628.264 835.136 628.191 835.344 628.074C835.555 627.958 835.739 627.797 835.897 627.592L837.118 627.955C836.875 628.335 836.564 628.646 836.185 628.888C835.809 629.132 835.39 629.286 834.928 629.352C834.465 629.418 833.98 629.376 833.473 629.225ZM839.141 630.909C838.53 630.728 838.062 630.437 837.735 630.036C837.408 629.633 837.237 629.154 837.219 628.599C837.206 628.043 837.353 627.445 837.661 626.805C837.963 626.179 838.347 625.668 838.813 625.273C839.283 624.878 839.8 624.617 840.365 624.491C840.934 624.366 841.516 624.392 842.113 624.569C842.723 624.75 843.19 625.042 843.514 625.445C843.84 625.848 844.011 626.329 844.028 626.886C844.044 627.443 843.898 628.043 843.589 628.685C843.289 629.306 842.903 629.814 842.431 630.207C841.963 630.599 841.446 630.858 840.88 630.984C840.315 631.111 839.735 631.086 839.141 630.909ZM839.524 629.881C839.926 630 840.307 629.998 840.668 629.875C841.032 629.752 841.361 629.544 841.655 629.249C841.949 628.954 842.193 628.607 842.387 628.21C842.572 627.825 842.68 627.455 842.712 627.1C842.749 626.744 842.69 626.432 842.535 626.165C842.381 625.897 842.113 625.707 841.731 625.593C841.33 625.474 840.945 625.477 840.577 625.601C840.213 625.723 839.884 625.934 839.589 626.231C839.297 626.53 839.055 626.878 838.864 627.277C838.681 627.659 838.571 628.029 838.535 628.385C838.499 628.739 838.559 629.048 838.714 629.312C838.869 629.577 839.139 629.766 839.524 629.881ZM847.188 633.301C846.564 633.115 846.094 632.822 845.779 632.422C845.465 632.019 845.304 631.545 845.296 630.999C845.288 630.454 845.433 629.875 845.73 629.262C846.03 628.641 846.417 628.13 846.892 627.728C847.37 627.324 847.897 627.054 848.475 626.919C849.055 626.785 849.647 626.808 850.252 626.988C850.74 627.133 851.133 627.348 851.43 627.634C851.728 627.916 851.92 628.246 852.005 628.624C852.09 629.001 852.056 629.402 851.903 629.827L850.686 629.465C850.756 629.158 850.721 628.866 850.582 628.588C850.443 628.31 850.176 628.112 849.78 627.994C849.431 627.891 849.083 627.887 848.736 627.985C848.389 628.079 848.066 628.265 847.765 628.542C847.464 628.817 847.21 629.173 847.002 629.608C846.784 630.054 846.669 630.459 846.654 630.825C846.639 631.191 846.72 631.502 846.896 631.757C847.072 632.013 847.335 632.193 847.687 632.297C847.926 632.368 848.162 632.391 848.394 632.366C848.63 632.339 848.852 632.267 849.059 632.15C849.27 632.033 849.454 631.873 849.612 631.668L850.834 632.031C850.59 632.41 850.279 632.722 849.901 632.964C849.525 633.208 849.106 633.362 848.643 633.428C848.181 633.494 847.696 633.451 847.188 633.301ZM853.175 630.787L851.414 634.415L850.164 634.044L854.131 625.901L855.365 626.268L853.891 629.298L853.97 629.322C854.278 629.033 854.632 628.84 855.035 628.741C855.441 628.64 855.895 628.665 856.397 628.814C856.838 628.945 857.18 629.145 857.425 629.415C857.672 629.686 857.803 630.019 857.819 630.415C857.839 630.809 857.726 631.261 857.48 631.771L855.58 635.653L854.329 635.282L856.151 631.54C856.37 631.092 856.417 630.708 856.293 630.389C856.17 630.068 855.895 629.843 855.469 629.717C855.17 629.628 854.876 629.609 854.585 629.659C854.297 629.71 854.03 629.831 853.785 630.022C853.541 630.21 853.338 630.466 853.175 630.787ZM858.898 636.78C858.268 636.593 857.787 636.303 857.454 635.91C857.126 635.515 856.952 635.046 856.935 634.504C856.918 633.958 857.064 633.369 857.373 632.736C857.678 632.11 858.069 631.595 858.547 631.191C859.025 630.787 859.551 630.517 860.126 630.381C860.703 630.246 861.29 630.268 861.887 630.445C862.249 630.553 862.573 630.714 862.858 630.929C863.146 631.145 863.364 631.415 863.514 631.739C863.664 632.062 863.721 632.442 863.685 632.877C863.654 633.311 863.504 633.805 863.236 634.36L863.033 634.782L857.922 633.263L858.347 632.37L862.228 633.523C862.384 633.212 862.456 632.916 862.442 632.635C862.429 632.352 862.336 632.105 862.162 631.892C861.991 631.681 861.743 631.526 861.417 631.43C861.082 631.33 860.744 631.325 860.401 631.415C860.059 631.504 859.75 631.656 859.474 631.872C859.201 632.085 858.997 632.328 858.861 632.6L858.46 633.414C858.248 633.861 858.149 634.241 858.162 634.554C858.178 634.869 858.292 635.127 858.505 635.33C858.718 635.533 859.013 635.69 859.389 635.802C859.632 635.874 859.866 635.907 860.092 635.902C860.322 635.894 860.538 635.847 860.739 635.762C860.941 635.673 861.127 635.543 861.296 635.372L862.379 635.926C862.122 636.229 861.811 636.469 861.446 636.645C861.082 636.819 860.683 636.921 860.25 636.95C859.82 636.977 859.369 636.92 858.898 636.78ZM864.117 638.19L867.096 632.084L868.305 632.443L867.83 633.413L867.897 633.433C868.173 633.138 868.506 632.941 868.897 632.842C869.288 632.74 869.672 632.745 870.048 632.857C870.129 632.881 870.22 632.911 870.322 632.947C870.424 632.98 870.506 633.012 870.567 633.043L870.01 634.179C869.967 634.151 869.885 634.11 869.765 634.056C869.645 633.999 869.518 633.951 869.385 633.911C869.092 633.824 868.801 633.806 868.513 633.857C868.226 633.905 867.964 634.014 867.729 634.184C867.494 634.351 867.31 634.566 867.177 634.83L865.367 638.562L864.117 638.19ZM869.353 639.901C868.946 639.78 868.613 639.599 868.353 639.358C868.095 639.114 867.936 638.826 867.878 638.493C867.819 638.16 867.887 637.793 868.082 637.393C868.251 637.049 868.459 636.786 868.707 636.605C868.958 636.424 869.234 636.304 869.533 636.245C869.834 636.182 870.147 636.162 870.471 636.182C870.796 636.203 871.118 636.242 871.438 636.301C871.841 636.372 872.169 636.429 872.42 636.47C872.675 636.512 872.873 636.52 873.015 636.492C873.157 636.461 873.264 636.375 873.333 636.232L873.342 636.202C873.508 635.857 873.539 635.56 873.434 635.31C873.333 635.059 873.082 634.873 872.68 634.754C872.262 634.63 871.883 634.617 871.544 634.717C871.208 634.817 870.939 634.962 870.737 635.15L869.696 634.55C870.012 634.219 870.361 633.98 870.742 633.832C871.126 633.682 871.52 633.608 871.923 633.61C872.327 633.608 872.723 633.665 873.111 633.78C873.367 633.856 873.624 633.966 873.882 634.11C874.141 634.25 874.359 634.434 874.538 634.66C874.719 634.886 874.822 635.164 874.846 635.493C874.87 635.819 874.774 636.204 874.556 636.65L872.582 640.705L871.361 640.343L871.772 639.509L871.722 639.494C871.568 639.624 871.373 639.739 871.137 639.839C870.904 639.94 870.637 640.001 870.336 640.024C870.034 640.047 869.707 640.006 869.353 639.901ZM870.078 639.024C870.426 639.127 870.755 639.15 871.063 639.093C871.374 639.037 871.646 638.924 871.879 638.753C872.112 638.58 872.288 638.373 872.405 638.131L872.789 637.344C872.723 637.373 872.617 637.386 872.473 637.382C872.331 637.379 872.173 637.368 872.001 637.347C871.828 637.326 871.659 637.301 871.494 637.274C871.332 637.247 871.197 637.226 871.089 637.212C870.835 637.17 870.589 637.153 870.353 637.162C870.12 637.172 869.912 637.223 869.729 637.318C869.547 637.409 869.405 637.561 869.302 637.774C869.16 638.068 869.164 638.324 869.315 638.542C869.469 638.758 869.724 638.918 870.078 639.024ZM872.074 643.176L876.18 634.783L877.401 635.146L876.92 636.137L877.025 636.168C877.159 636.062 877.333 635.945 877.547 635.818C877.764 635.691 878.026 635.602 878.332 635.55C878.64 635.496 878.993 635.528 879.391 635.647C879.91 635.801 880.31 636.062 880.592 636.431C880.874 636.8 881.018 637.254 881.025 637.793C881.032 638.332 880.875 638.932 880.554 639.592C880.233 640.253 879.842 640.784 879.379 641.187C878.917 641.587 878.422 641.854 877.894 641.988C877.369 642.12 876.846 642.109 876.325 641.954C875.934 641.838 875.646 641.681 875.459 641.483C875.275 641.286 875.154 641.083 875.098 640.875C875.041 640.667 875.005 640.486 874.99 640.333L874.915 640.311L873.333 643.55L872.074 643.176ZM875.915 638.2C875.709 638.631 875.591 639.026 875.562 639.388C875.534 639.75 875.6 640.059 875.76 640.316C875.924 640.571 876.186 640.752 876.545 640.859C876.919 640.97 877.276 640.969 877.616 640.854C877.958 640.737 878.271 640.535 878.557 640.246C878.846 639.959 879.09 639.611 879.29 639.203C879.486 638.8 879.598 638.419 879.626 638.06C879.656 637.702 879.592 637.393 879.432 637.134C879.273 636.874 879.005 636.688 878.628 636.576C878.263 636.468 877.912 636.465 877.575 636.568C877.24 636.672 876.932 636.864 876.648 637.144C876.365 637.424 876.12 637.776 875.915 638.2ZM878.295 645.025L882.4 636.632L883.621 636.995L883.14 637.985L883.245 638.016C883.379 637.911 883.554 637.794 883.768 637.666C883.984 637.54 884.246 637.45 884.553 637.399C884.86 637.345 885.213 637.377 885.612 637.495C886.13 637.649 886.531 637.911 886.812 638.28C887.094 638.649 887.238 639.103 887.245 639.642C887.252 640.181 887.095 640.781 886.774 641.441C886.454 642.101 886.062 642.633 885.6 643.035C885.138 643.435 884.643 643.702 884.114 643.837C883.589 643.969 883.066 643.958 882.545 643.803C882.155 643.687 881.866 643.53 881.679 643.331C881.495 643.134 881.375 642.931 881.318 642.723C881.262 642.516 881.226 642.335 881.211 642.182L881.135 642.159L879.554 645.399L878.295 645.025ZM882.136 640.049C881.929 640.479 881.811 640.875 881.783 641.237C881.754 641.598 881.82 641.908 881.98 642.165C882.144 642.42 882.406 642.601 882.766 642.708C883.139 642.819 883.496 642.817 883.837 642.703C884.178 642.586 884.492 642.383 884.778 642.095C885.066 641.807 885.311 641.46 885.511 641.052C885.706 640.649 885.818 640.268 885.846 639.909C885.876 639.551 885.812 639.242 885.652 638.982C885.493 638.722 885.225 638.536 884.849 638.424C884.483 638.316 884.132 638.313 883.795 638.416C883.461 638.52 883.152 638.712 882.868 638.992C882.585 639.272 882.341 639.624 882.136 640.049ZM885.628 644.582L888.608 638.477L889.817 638.836L889.342 639.805L889.409 639.825C889.684 639.531 890.017 639.334 890.408 639.234C890.8 639.132 891.183 639.137 891.56 639.249C891.641 639.273 891.732 639.303 891.833 639.339C891.936 639.373 892.017 639.405 892.078 639.435L891.522 640.571C891.479 640.543 891.397 640.502 891.276 640.448C891.157 640.392 891.03 640.343 890.896 640.303C890.603 640.216 890.313 640.198 890.025 640.249C889.737 640.297 889.476 640.406 889.24 640.576C889.006 640.743 888.822 640.958 888.689 641.222L886.879 644.954L885.628 644.582ZM891.595 646.496C890.965 646.309 890.483 646.019 890.151 645.626C889.822 645.231 889.649 644.762 889.631 644.22C889.614 643.675 889.761 643.085 890.07 642.452C890.374 641.826 890.766 641.312 891.244 640.907C891.722 640.503 892.248 640.233 892.823 640.098C893.4 639.963 893.987 639.984 894.583 640.161C894.946 640.269 895.27 640.43 895.555 640.645C895.842 640.861 896.061 641.131 896.211 641.455C896.36 641.779 896.417 642.158 896.382 642.594C896.35 643.027 896.2 643.521 895.932 644.076L895.73 644.498L890.619 642.979L891.044 642.086L894.925 643.239C895.081 642.928 895.152 642.632 895.139 642.352C895.126 642.069 895.032 641.821 894.859 641.608C894.688 641.397 894.439 641.243 894.113 641.146C893.779 641.046 893.44 641.041 893.098 641.131C892.756 641.22 892.447 641.373 892.17 641.588C891.898 641.801 891.693 642.044 891.558 642.316L891.157 643.13C890.945 643.577 890.846 643.957 890.859 644.27C890.875 644.585 890.989 644.843 891.202 645.046C891.415 645.249 891.709 645.406 892.086 645.518C892.328 645.59 892.563 645.623 892.789 645.618C893.019 645.61 893.234 645.564 893.436 645.478C893.638 645.389 893.824 645.259 893.993 645.088L895.076 645.642C894.819 645.945 894.508 646.185 894.143 646.361C893.778 646.535 893.38 646.637 892.946 646.666C892.516 646.693 892.066 646.636 891.595 646.496ZM901.825 644.111L900.598 643.965C900.617 643.81 900.607 643.655 900.568 643.501C900.531 643.347 900.447 643.207 900.315 643.08C900.184 642.95 899.988 642.846 899.729 642.769C899.369 642.662 899.03 642.651 898.711 642.735C898.394 642.82 898.179 642.983 898.064 643.226C897.967 643.421 897.966 643.603 898.061 643.771C898.158 643.936 898.362 644.111 898.675 644.295L899.592 644.822C900.121 645.128 900.464 645.462 900.623 645.825C900.786 646.186 900.762 646.585 900.55 647.023C900.372 647.386 900.104 647.675 899.746 647.89C899.39 648.106 898.979 648.235 898.511 648.278C898.043 648.321 897.552 648.267 897.039 648.114C896.309 647.897 895.786 647.573 895.471 647.143C895.156 646.713 895.077 646.213 895.234 645.643L896.526 645.827C896.455 646.149 896.497 646.421 896.653 646.643C896.812 646.863 897.074 647.028 897.439 647.136C897.857 647.263 898.233 647.279 898.567 647.185C898.902 647.09 899.126 646.921 899.241 646.679C899.333 646.491 899.337 646.314 899.254 646.146C899.173 645.979 898.991 645.816 898.707 645.656L897.741 645.109C897.202 644.8 896.857 644.458 896.708 644.083C896.558 643.708 896.591 643.302 896.806 642.865C896.979 642.507 897.235 642.227 897.575 642.024C897.918 641.82 898.31 641.698 898.753 641.66C899.196 641.618 899.657 641.669 900.137 641.811C900.836 642.019 901.317 642.326 901.579 642.732C901.842 643.134 901.924 643.594 901.825 644.111ZM902.724 649.804C902.094 649.616 901.613 649.326 901.281 648.933C900.952 648.538 900.779 648.069 900.761 647.527C900.744 646.982 900.89 646.393 901.2 645.759C901.504 645.134 901.895 644.619 902.373 644.215C902.851 643.811 903.378 643.541 903.952 643.405C904.529 643.27 905.116 643.291 905.713 643.468C906.075 643.576 906.399 643.738 906.684 643.953C906.972 644.169 907.191 644.439 907.34 644.762C907.49 645.086 907.547 645.465 907.512 645.901C907.48 646.335 907.33 646.829 907.062 647.383L906.859 647.805L901.748 646.287L902.173 645.393L906.054 646.547C906.211 646.235 906.282 645.939 906.268 645.659C906.255 645.376 906.162 645.128 905.988 644.916C905.817 644.704 905.569 644.55 905.243 644.453C904.908 644.354 904.57 644.349 904.228 644.438C903.885 644.528 903.576 644.68 903.3 644.895C903.027 645.108 902.823 645.351 902.687 645.623L902.286 646.437C902.075 646.884 901.975 647.264 901.988 647.578C902.004 647.892 902.119 648.15 902.331 648.353C902.544 648.556 902.839 648.713 903.215 648.825C903.458 648.897 903.692 648.931 903.918 648.925C904.148 648.917 904.364 648.871 904.565 648.785C904.768 648.696 904.953 648.567 905.123 648.395L906.205 648.949C905.948 649.252 905.637 649.492 905.272 649.669C904.908 649.843 904.509 649.944 904.076 649.973C903.646 650 903.195 649.944 902.724 649.804ZM908.902 647.347L907.141 650.975L905.89 650.603L908.87 644.498L910.07 644.854L909.584 645.848L909.663 645.871C909.969 645.589 910.327 645.398 910.739 645.299C911.155 645.198 911.603 645.219 912.086 645.362C912.521 645.491 912.859 645.692 913.1 645.964C913.344 646.234 913.474 646.567 913.49 646.963C913.509 647.36 913.396 647.81 913.152 648.314L911.252 652.197L910.001 651.825L911.828 648.085C912.041 647.641 912.088 647.259 911.968 646.938C911.851 646.616 911.58 646.391 911.153 646.264C910.863 646.178 910.576 646.161 910.29 646.212C910.008 646.265 909.745 646.387 909.503 646.579C909.264 646.769 909.064 647.025 908.902 647.347ZM917.843 647.164L917.382 648.119L913.873 647.077L914.334 646.121L917.843 647.164ZM915.984 644.937L917.234 645.308L914.416 651.084C914.305 651.315 914.258 651.5 914.274 651.638C914.292 651.774 914.348 651.88 914.444 651.957C914.543 652.032 914.661 652.09 914.797 652.13C914.898 652.16 914.987 652.179 915.067 652.188C915.146 652.196 915.21 652.203 915.257 652.208L915.017 653.261C914.925 653.264 914.803 653.258 914.653 653.244C914.504 653.233 914.329 653.199 914.128 653.142C913.797 653.05 913.518 652.903 913.289 652.702C913.062 652.498 912.92 652.249 912.864 651.957C912.809 651.661 912.873 651.33 913.055 650.962L915.984 644.937ZM916.997 654.059C916.59 653.938 916.257 653.757 915.998 653.516C915.74 653.272 915.581 652.984 915.522 652.651C915.464 652.318 915.532 651.951 915.726 651.551C915.895 651.207 916.104 650.944 916.352 650.763C916.603 650.582 916.878 650.462 917.178 650.403C917.479 650.341 917.791 650.32 918.116 650.34C918.441 650.361 918.763 650.4 919.082 650.459C919.486 650.53 919.813 650.587 920.065 650.628C920.32 650.67 920.518 650.678 920.659 650.65C920.802 650.62 920.908 650.533 920.978 650.39L920.987 650.36C921.153 650.015 921.184 649.718 921.079 649.468C920.978 649.217 920.726 649.031 920.325 648.912C919.907 648.788 919.528 648.775 919.189 648.875C918.853 648.975 918.583 649.12 918.382 649.309L917.34 648.708C917.657 648.377 918.006 648.138 918.387 647.99C918.771 647.84 919.165 647.766 919.568 647.768C919.972 647.766 920.368 647.823 920.755 647.938C921.012 648.015 921.269 648.124 921.527 648.268C921.785 648.408 922.004 648.592 922.183 648.818C922.364 649.045 922.466 649.322 922.49 649.651C922.515 649.977 922.418 650.362 922.201 650.808L920.227 654.864L919.005 654.501L919.417 653.667L919.367 653.652C919.213 653.782 919.018 653.897 918.782 653.997C918.549 654.098 918.281 654.16 917.98 654.182C917.679 654.205 917.352 654.164 916.997 654.059ZM917.722 653.182C918.071 653.285 918.399 653.309 918.707 653.252C919.019 653.195 919.29 653.082 919.523 652.911C919.757 652.738 919.932 652.531 920.049 652.289L920.433 651.502C920.367 651.531 920.262 651.544 920.117 651.54C919.975 651.538 919.818 651.526 919.645 651.505C919.473 651.484 919.304 651.459 919.139 651.432C918.977 651.405 918.842 651.384 918.734 651.37C918.479 651.328 918.234 651.311 917.998 651.32C917.764 651.33 917.556 651.382 917.374 651.476C917.192 651.568 917.049 651.719 916.947 651.932C916.805 652.226 916.809 652.483 916.96 652.7C917.114 652.916 917.368 653.077 917.722 653.182ZM925.54 656.584C924.915 656.398 924.445 656.105 924.13 655.705C923.816 655.302 923.655 654.828 923.647 654.283C923.64 653.737 923.784 653.158 924.082 652.545C924.381 651.924 924.769 651.413 925.243 651.011C925.721 650.607 926.249 650.337 926.826 650.202C927.406 650.068 927.999 650.091 928.604 650.271C929.092 650.416 929.484 650.631 929.782 650.917C930.08 651.199 930.272 651.53 930.357 651.907C930.442 652.284 930.408 652.685 930.254 653.11L929.037 652.748C929.107 652.441 929.073 652.149 928.934 651.871C928.795 651.593 928.528 651.395 928.132 651.277C927.783 651.174 927.435 651.171 927.088 651.268C926.741 651.362 926.417 651.548 926.116 651.825C925.816 652.1 925.562 652.456 925.353 652.891C925.136 653.337 925.02 653.742 925.006 654.108C924.991 654.474 925.072 654.785 925.247 655.04C925.423 655.296 925.687 655.476 926.038 655.58C926.278 655.651 926.514 655.674 926.746 655.649C926.982 655.622 927.203 655.55 927.411 655.433C927.622 655.316 927.806 655.156 927.964 654.951L929.185 655.314C928.942 655.693 928.631 656.005 928.252 656.247C927.877 656.491 927.457 656.645 926.995 656.711C926.532 656.777 926.047 656.734 925.54 656.584ZM931.527 654.071L929.766 657.698L928.516 657.327L932.483 649.184L933.717 649.551L932.243 652.581L932.322 652.605C932.629 652.317 932.984 652.123 933.387 652.024C933.793 651.923 934.247 651.948 934.749 652.097C935.189 652.228 935.532 652.428 935.776 652.698C936.024 652.969 936.155 653.302 936.171 653.698C936.19 654.092 936.077 654.544 935.832 655.054L933.932 658.936L932.681 658.565L934.503 654.823C934.721 654.375 934.768 653.991 934.645 653.673C934.522 653.351 934.247 653.127 933.82 653C933.522 652.911 933.227 652.892 932.936 652.942C932.648 652.993 932.382 653.114 932.137 653.305C931.893 653.493 931.689 653.749 931.527 654.071ZM934.536 659.116L937.516 653.01L938.766 653.382L935.787 659.487L934.536 659.116ZM938.701 652.27C938.483 652.205 938.321 652.078 938.213 651.888C938.109 651.697 938.093 651.501 938.165 651.3C938.237 651.097 938.376 650.947 938.581 650.85C938.786 650.751 938.997 650.733 939.211 650.797C939.429 650.861 939.589 650.989 939.693 651.181C939.798 651.37 939.816 651.566 939.746 651.77C939.674 651.97 939.536 652.12 939.33 652.22C939.128 652.318 938.918 652.334 938.701 652.27ZM937.353 662.575L941.458 654.182L942.679 654.544L942.198 655.535L942.303 655.566C942.438 655.46 942.612 655.344 942.826 655.216C943.042 655.089 943.304 655 943.611 654.949C943.918 654.894 944.271 654.926 944.67 655.045C945.188 655.199 945.589 655.461 945.87 655.83C946.152 656.199 946.297 656.653 946.303 657.192C946.31 657.731 946.153 658.33 945.832 658.991C945.512 659.651 945.12 660.182 944.658 660.585C944.196 660.985 943.701 661.252 943.172 661.386C942.648 661.519 942.124 661.507 941.603 661.352C941.213 661.236 940.924 661.079 940.737 660.881C940.553 660.684 940.433 660.481 940.376 660.273C940.32 660.065 940.284 659.885 940.269 659.731L940.193 659.709L938.612 662.949L937.353 662.575ZM941.194 657.599C940.987 658.029 940.869 658.425 940.841 658.786C940.812 659.148 940.878 659.457 941.038 659.714C941.202 659.969 941.464 660.15 941.824 660.257C942.197 660.368 942.554 660.367 942.895 660.252C943.236 660.135 943.55 659.933 943.836 659.644C944.124 659.357 944.369 659.009 944.569 658.602C944.764 658.198 944.876 657.817 944.904 657.459C944.934 657.1 944.87 656.792 944.711 656.532C944.551 656.272 944.283 656.086 943.907 655.974C943.541 655.866 943.19 655.863 942.853 655.966C942.519 656.07 942.21 656.262 941.926 656.542C941.643 656.822 941.399 657.174 941.194 657.599ZM947.383 663.075C946.772 662.893 946.304 662.602 945.977 662.201C945.65 661.798 945.479 661.319 945.461 660.765C945.448 660.208 945.595 659.61 945.903 658.971C946.205 658.344 946.589 657.833 947.055 657.438C947.525 657.043 948.042 656.783 948.607 656.657C949.176 656.531 949.758 656.557 950.355 656.734C950.965 656.916 951.432 657.208 951.756 657.61C952.082 658.014 952.253 658.494 952.27 659.051C952.286 659.608 952.14 660.208 951.831 660.851C951.531 661.471 951.145 661.979 950.673 662.373C950.205 662.764 949.688 663.024 949.122 663.15C948.557 663.276 947.977 663.251 947.383 663.075ZM947.766 662.046C948.168 662.165 948.549 662.163 948.91 662.04C949.274 661.918 949.603 661.709 949.897 661.414C950.191 661.119 950.435 660.773 950.629 660.375C950.814 659.99 950.922 659.62 950.954 659.266C950.991 658.909 950.932 658.597 950.777 658.33C950.623 658.063 950.355 657.872 949.973 657.759C949.572 657.639 949.187 657.642 948.819 657.766C948.455 657.889 948.126 658.099 947.831 658.397C947.539 658.695 947.297 659.044 947.106 659.442C946.923 659.824 946.813 660.194 946.777 660.55C946.741 660.904 946.801 661.213 946.956 661.478C947.111 661.742 947.381 661.932 947.766 662.046ZM956.701 658.711L956.24 659.666L952.731 658.624L953.192 657.668L956.701 658.711ZM954.841 656.484L956.092 656.855L953.274 662.631C953.163 662.862 953.115 663.047 953.132 663.185C953.149 663.321 953.206 663.427 953.301 663.504C953.4 663.579 953.518 663.637 953.655 663.677C953.755 663.707 953.845 663.726 953.925 663.735C954.004 663.743 954.067 663.75 954.114 663.755L953.874 664.808C953.782 664.811 953.661 664.805 953.511 664.791C953.362 664.78 953.187 664.746 952.985 664.689C952.655 664.597 952.375 664.45 952.147 664.249C951.919 664.045 951.778 663.796 951.722 663.504C951.667 663.208 951.731 662.877 951.913 662.509L954.841 656.484ZM954.045 664.913L957.024 658.807L958.233 659.166L957.758 660.136L957.825 660.156C958.101 659.861 958.434 659.665 958.824 659.565C959.216 659.463 959.6 659.468 959.976 659.58C960.057 659.604 960.148 659.634 960.25 659.67C960.352 659.704 960.434 659.735 960.495 659.766L959.938 660.902C959.895 660.874 959.813 660.833 959.693 660.779C959.573 660.722 959.446 660.674 959.312 660.634C959.02 660.547 958.729 660.529 958.441 660.58C958.154 660.628 957.892 660.737 957.657 660.907C957.422 661.074 957.238 661.289 957.105 661.553L955.295 665.285L954.045 664.913ZM960.011 666.827C959.381 666.64 958.9 666.35 958.567 665.957C958.239 665.562 958.066 665.093 958.048 664.55C958.031 664.005 958.177 663.416 958.486 662.783C958.791 662.157 959.182 661.642 959.66 661.238C960.138 660.834 960.665 660.564 961.239 660.428C961.816 660.293 962.403 660.315 963 660.492C963.362 660.6 963.686 660.761 963.971 660.976C964.259 661.192 964.477 661.462 964.627 661.786C964.777 662.109 964.834 662.489 964.798 662.924C964.767 663.358 964.617 663.852 964.349 664.407L964.146 664.829L959.035 663.31L959.46 662.417L963.341 663.57C963.498 663.258 963.569 662.963 963.555 662.682C963.542 662.399 963.449 662.152 963.275 661.939C963.104 661.728 962.856 661.573 962.53 661.476C962.195 661.377 961.857 661.372 961.514 661.461C961.172 661.551 960.863 661.703 960.587 661.919C960.314 662.132 960.11 662.375 959.974 662.647L959.573 663.461C959.361 663.908 959.262 664.288 959.275 664.601C959.291 664.915 959.405 665.174 959.618 665.377C959.831 665.58 960.126 665.737 960.502 665.849C960.745 665.921 960.979 665.954 961.205 665.948C961.435 665.941 961.651 665.894 961.852 665.808C962.055 665.72 962.24 665.59 962.41 665.419L963.492 665.973C963.235 666.276 962.924 666.515 962.559 666.692C962.195 666.866 961.796 666.968 961.363 666.997C960.933 667.024 960.482 666.967 960.011 666.827ZM970.241 664.442L969.015 664.296C969.033 664.14 969.023 663.986 968.984 663.831C968.948 663.678 968.863 663.538 968.731 663.41C968.6 663.28 968.405 663.177 968.146 663.1C967.786 662.993 967.446 662.981 967.127 663.066C966.81 663.151 966.595 663.314 966.481 663.556C966.383 663.752 966.382 663.934 966.478 664.102C966.574 664.267 966.779 664.441 967.091 664.625L968.009 665.153C968.537 665.458 968.881 665.793 969.04 666.156C969.203 666.516 969.178 666.916 968.966 667.353C968.788 667.716 968.52 668.005 968.162 668.221C967.807 668.437 967.395 668.566 966.927 668.609C966.459 668.652 965.969 668.597 965.456 668.445C964.725 668.228 964.202 667.904 963.887 667.474C963.572 667.043 963.493 666.543 963.65 665.974L964.943 666.158C964.871 666.48 964.913 666.752 965.069 666.974C965.228 667.194 965.49 667.358 965.855 667.467C966.273 667.594 966.649 667.61 966.984 667.515C967.318 667.421 967.543 667.252 967.657 667.01C967.749 666.822 967.754 666.644 967.67 666.477C967.589 666.31 967.407 666.147 967.124 665.987L966.157 665.44C965.618 665.131 965.274 664.789 965.124 664.414C964.975 664.039 965.007 663.633 965.222 663.196C965.395 662.838 965.652 662.557 965.991 662.355C966.334 662.15 966.727 662.029 967.169 661.99C967.612 661.949 968.073 662 968.553 662.142C969.253 662.35 969.734 662.657 969.995 663.062C970.258 663.465 970.34 663.925 970.241 664.442ZM974.406 663.972L973.944 664.927L970.435 663.885L970.897 662.929L974.406 663.972ZM972.546 661.745L973.796 662.116L970.978 667.892C970.867 668.123 970.82 668.308 970.837 668.446C970.854 668.582 970.91 668.688 971.006 668.765C971.105 668.84 971.223 668.898 971.359 668.939C971.46 668.968 971.55 668.988 971.629 668.996C971.709 669.004 971.772 669.011 971.819 669.016L971.579 670.069C971.487 670.072 971.366 670.066 971.215 670.052C971.067 670.041 970.892 670.007 970.69 669.95C970.359 669.858 970.08 669.711 969.851 669.51C969.624 669.306 969.482 669.057 969.427 668.765C969.372 668.469 969.435 668.138 969.617 667.77L972.546 661.745ZM971.749 670.174L974.729 664.068L975.979 664.44L973 670.546L971.749 670.174ZM975.914 663.328C975.696 663.263 975.534 663.136 975.426 662.946C975.322 662.755 975.306 662.559 975.378 662.359C975.45 662.156 975.589 662.006 975.794 661.909C976 661.809 976.21 661.791 976.424 661.855C976.642 661.919 976.803 662.048 976.906 662.239C977.011 662.428 977.029 662.625 976.959 662.828C976.887 663.029 976.749 663.179 976.543 663.278C976.341 663.376 976.131 663.393 975.914 663.328ZM978.392 672.289C977.762 672.102 977.281 671.812 976.949 671.419C976.62 671.024 976.447 670.555 976.429 670.013C976.412 669.467 976.558 668.878 976.868 668.245C977.172 667.619 977.563 667.104 978.041 666.7C978.52 666.296 979.046 666.026 979.62 665.891C980.197 665.756 980.784 665.777 981.381 665.954C981.743 666.062 982.067 666.223 982.352 666.438C982.64 666.654 982.859 666.924 983.008 667.248C983.158 667.571 983.215 667.951 983.18 668.387C983.148 668.82 982.998 669.314 982.73 669.869L982.527 670.291L977.417 668.772L977.841 667.879L981.723 669.032C981.879 668.721 981.95 668.425 981.936 668.144C981.923 667.861 981.83 667.614 981.656 667.401C981.486 667.19 981.237 667.036 980.911 666.939C980.576 666.839 980.238 666.834 979.896 666.924C979.554 667.013 979.244 667.166 978.968 667.381C978.695 667.594 978.491 667.837 978.356 668.109L977.954 668.923C977.743 669.37 977.643 669.75 977.656 670.063C977.672 670.378 977.787 670.636 978 670.839C978.212 671.042 978.507 671.199 978.883 671.311C979.126 671.383 979.36 671.416 979.587 671.411C979.816 671.403 980.032 671.356 980.234 671.271C980.436 671.182 980.622 671.052 980.791 670.881L981.873 671.435C981.616 671.738 981.305 671.978 980.94 672.154C980.576 672.328 980.177 672.43 979.744 672.459C979.314 672.486 978.864 672.429 978.392 672.289ZM988.622 669.904L987.396 669.758C987.415 669.603 987.404 669.448 987.365 669.294C987.329 669.14 987.245 669 987.113 668.873C986.981 668.742 986.786 668.639 986.527 668.562C986.167 668.455 985.828 668.444 985.508 668.528C985.192 668.613 984.976 668.776 984.862 669.018C984.764 669.214 984.763 669.396 984.859 669.564C984.956 669.729 985.16 669.904 985.473 670.087L986.39 670.615C986.918 670.921 987.262 671.255 987.421 671.618C987.584 671.979 987.559 672.378 987.347 672.816C987.17 673.179 986.902 673.468 986.544 673.683C986.188 673.899 985.776 674.028 985.308 674.071C984.84 674.114 984.35 674.06 983.837 673.907C983.106 673.69 982.584 673.366 982.268 672.936C981.953 672.505 981.874 672.006 982.031 671.436L983.324 671.62C983.253 671.942 983.295 672.214 983.45 672.436C983.609 672.656 983.872 672.821 984.237 672.929C984.654 673.056 985.03 673.072 985.365 672.978C985.699 672.883 985.924 672.714 986.038 672.472C986.131 672.284 986.135 672.106 986.051 671.939C985.97 671.772 985.788 671.609 985.505 671.449L984.539 670.902C983.999 670.593 983.655 670.251 983.505 669.876C983.356 669.501 983.389 669.095 983.603 668.658C983.777 668.3 984.033 668.02 984.372 667.817C984.715 667.612 985.108 667.491 985.55 667.452C985.993 667.411 986.455 667.462 986.934 667.604C987.634 667.812 988.115 668.119 988.377 668.524C988.639 668.927 988.721 669.387 988.622 669.904ZM993.877 671.465L992.65 671.319C992.669 671.164 992.659 671.009 992.62 670.855C992.583 670.701 992.499 670.561 992.367 670.434C992.236 670.304 992.04 670.2 991.781 670.123C991.421 670.016 991.082 670.005 990.763 670.089C990.446 670.174 990.23 670.338 990.116 670.58C990.019 670.775 990.018 670.957 990.113 671.125C990.21 671.29 990.414 671.465 990.727 671.649L991.644 672.176C992.173 672.482 992.516 672.816 992.675 673.179C992.838 673.54 992.814 673.939 992.602 674.377C992.424 674.74 992.156 675.029 991.798 675.244C991.442 675.46 991.031 675.59 990.563 675.633C990.095 675.676 989.604 675.621 989.091 675.469C988.361 675.251 987.838 674.928 987.523 674.497C987.208 674.067 987.129 673.567 987.286 672.998L988.578 673.181C988.507 673.503 988.549 673.775 988.705 673.997C988.864 674.218 989.126 674.382 989.491 674.49C989.908 674.618 990.284 674.634 990.619 674.539C990.954 674.444 991.178 674.276 991.293 674.034C991.385 673.846 991.389 673.668 991.306 673.5C991.225 673.334 991.042 673.17 990.759 673.01L989.793 672.464C989.254 672.155 988.909 671.813 988.76 671.437C988.61 671.062 988.643 670.656 988.858 670.219C989.031 669.861 989.287 669.581 989.626 669.378C989.969 669.174 990.362 669.052 990.804 669.014C991.248 668.972 991.709 669.023 992.189 669.166C992.888 669.374 993.369 669.68 993.631 670.086C993.894 670.489 993.976 670.948 993.877 671.465ZM994.776 677.158C994.146 676.971 993.665 676.681 993.333 676.287C993.004 675.892 992.831 675.424 992.813 674.881C992.796 674.336 992.942 673.747 993.252 673.114C993.556 672.488 993.947 671.973 994.425 671.569C994.903 671.165 995.43 670.895 996.004 670.759C996.581 670.624 997.168 670.645 997.765 670.823C998.127 670.93 998.451 671.092 998.736 671.307C999.024 671.523 999.243 671.793 999.392 672.116C999.542 672.44 999.599 672.82 999.564 673.255C999.532 673.689 999.382 674.183 999.114 674.737L998.911 675.16L993.8 673.641L994.225 672.748L998.106 673.901C998.263 673.589 998.334 673.293 998.32 673.013C998.307 672.73 998.214 672.482 998.04 672.27C997.869 672.058 997.621 671.904 997.295 671.807C996.96 671.708 996.622 671.703 996.28 671.792C995.937 671.882 995.628 672.034 995.352 672.249C995.079 672.463 994.875 672.705 994.739 672.978L994.338 673.792C994.127 674.238 994.027 674.619 994.04 674.932C994.056 675.246 994.17 675.505 994.383 675.708C994.596 675.91 994.891 676.068 995.267 676.18C995.51 676.252 995.744 676.285 995.97 676.279C996.2 676.272 996.416 676.225 996.617 676.139C996.82 676.051 997.005 675.921 997.175 675.75L998.257 676.303C998 676.606 997.689 676.846 997.324 677.023C996.96 677.197 996.561 677.298 996.128 677.327C995.698 677.354 995.247 677.298 994.776 677.158ZM997.938 677.956L1000.92 671.851L1002.13 672.21L1001.65 673.179L1001.72 673.199C1001.99 672.905 1002.33 672.708 1002.72 672.609C1003.11 672.506 1003.49 672.511 1003.87 672.623C1003.95 672.647 1004.04 672.677 1004.14 672.714C1004.25 672.747 1004.33 672.779 1004.39 672.809L1003.83 673.945C1003.79 673.917 1003.71 673.876 1003.59 673.822C1003.47 673.766 1003.34 673.717 1003.21 673.678C1002.91 673.591 1002.62 673.573 1002.33 673.623C1002.05 673.672 1001.79 673.78 1001.55 673.95C1001.32 674.117 1001.13 674.333 1001 674.596L999.189 678.328L997.938 677.956ZM1003.9 679.87C1003.27 679.683 1002.79 679.393 1002.46 679C1002.13 678.605 1001.96 678.136 1001.94 677.594C1001.92 677.049 1002.07 676.459 1002.38 675.826C1002.68 675.201 1003.08 674.686 1003.55 674.282C1004.03 673.877 1004.56 673.607 1005.13 673.472C1005.71 673.337 1006.3 673.358 1006.89 673.535C1007.26 673.643 1007.58 673.804 1007.86 674.02C1008.15 674.236 1008.37 674.505 1008.52 674.829C1008.67 675.153 1008.73 675.532 1008.69 675.968C1008.66 676.401 1008.51 676.895 1008.24 677.45L1008.04 677.872L1002.93 676.353L1003.35 675.46L1007.23 676.613C1007.39 676.302 1007.46 676.006 1007.45 675.726C1007.44 675.443 1007.34 675.195 1007.17 674.983C1007 674.771 1006.75 674.617 1006.42 674.52C1006.09 674.42 1005.75 674.415 1005.41 674.505C1005.07 674.594 1004.76 674.747 1004.48 674.962C1004.21 675.175 1004 675.418 1003.87 675.69L1003.47 676.504C1003.25 676.951 1003.16 677.331 1003.17 677.645C1003.18 677.959 1003.3 678.217 1003.51 678.42C1003.72 678.623 1004.02 678.78 1004.4 678.892C1004.64 678.964 1004.87 678.997 1005.1 678.992C1005.33 678.984 1005.54 678.938 1005.75 678.852C1005.95 678.763 1006.13 678.633 1006.3 678.462L1007.39 679.016C1007.13 679.319 1006.82 679.559 1006.45 679.736C1006.09 679.91 1005.69 680.011 1005.26 680.04C1004.83 680.067 1004.38 680.011 1003.9 679.87ZM1009.24 680.041L1008.96 680.453C1008.76 680.759 1008.53 681.069 1008.26 681.385C1008 681.701 1007.74 681.992 1007.5 682.258C1007.25 682.526 1007.05 682.739 1006.9 682.896L1006.01 682.632C1006.13 682.477 1006.28 682.27 1006.48 682.009C1006.68 681.75 1006.89 681.457 1007.12 681.131C1007.35 680.805 1007.57 680.466 1007.77 680.114L1008.04 679.683L1009.24 680.041ZM810.124 637.794L813.104 631.688L814.354 632.059L811.375 638.165L810.124 637.794ZM814.289 630.948C814.071 630.883 813.909 630.756 813.801 630.566C813.697 630.374 813.681 630.178 813.753 629.978C813.825 629.775 813.964 629.625 814.169 629.528C814.374 629.429 814.585 629.411 814.799 629.474C815.017 629.539 815.177 629.667 815.281 629.859C815.386 630.048 815.403 630.244 815.334 630.448C815.262 630.648 815.123 630.798 814.918 630.898C814.716 630.996 814.506 631.012 814.289 630.948ZM815.012 635.095L813.252 638.723L812.001 638.351L814.981 632.246L816.181 632.602L815.695 633.596L815.774 633.619C816.08 633.337 816.438 633.146 816.85 633.047C817.265 632.946 817.714 632.967 818.197 633.11C818.632 633.24 818.97 633.44 819.21 633.712C819.455 633.982 819.585 634.315 819.601 634.711C819.619 635.108 819.507 635.558 819.263 636.063L817.363 639.945L816.112 639.573L817.938 635.833C818.152 635.39 818.199 635.007 818.079 634.687C817.962 634.364 817.691 634.139 817.264 634.012C816.974 633.926 816.686 633.909 816.401 633.96C816.118 634.013 815.856 634.135 815.614 634.327C815.375 634.517 815.175 634.773 815.012 635.095ZM826.221 635.586L820.912 640.999L819.573 640.602L820.219 633.802L821.512 634.186L820.846 639.368L820.913 639.388L824.828 635.172L826.221 635.586ZM825.851 642.608C825.221 642.421 824.74 642.131 824.408 641.738C824.079 641.343 823.906 640.874 823.888 640.332C823.871 639.787 824.017 639.197 824.327 638.564C824.631 637.938 825.022 637.423 825.5 637.019C825.979 636.615 826.505 636.345 827.079 636.21C827.656 636.075 828.243 636.096 828.84 636.273C829.202 636.381 829.526 636.542 829.811 636.757C830.099 636.973 830.318 637.243 830.467 637.567C830.617 637.89 830.674 638.27 830.639 638.706C830.607 639.139 830.457 639.633 830.189 640.188L829.986 640.61L824.876 639.091L825.3 638.198L829.182 639.351C829.338 639.04 829.409 638.744 829.395 638.464C829.382 638.181 829.289 637.933 829.115 637.72C828.945 637.509 828.696 637.355 828.37 637.258C828.035 637.158 827.697 637.153 827.355 637.243C827.013 637.332 826.703 637.485 826.427 637.7C826.154 637.913 825.95 638.156 825.815 638.428L825.413 639.242C825.202 639.689 825.102 640.069 825.116 640.382C825.131 640.697 825.246 640.955 825.459 641.158C825.671 641.361 825.966 641.518 826.342 641.63C826.585 641.702 826.819 641.735 827.046 641.73C827.275 641.722 827.491 641.675 827.693 641.59C827.895 641.501 828.081 641.371 828.25 641.2L829.332 641.754C829.075 642.057 828.764 642.297 828.399 642.473C828.035 642.647 827.636 642.749 827.203 642.778C826.773 642.805 826.323 642.748 825.851 642.608ZM831.664 644.336C831.039 644.15 830.57 643.857 830.255 643.457C829.94 643.054 829.779 642.58 829.772 642.035C829.764 641.489 829.908 640.91 830.206 640.297C830.506 639.677 830.893 639.165 831.367 638.763C831.845 638.359 832.373 638.089 832.95 637.954C833.53 637.82 834.123 637.843 834.728 638.023C835.216 638.168 835.608 638.383 835.906 638.669C836.204 638.951 836.396 639.282 836.481 639.659C836.566 640.036 836.532 640.437 836.378 640.862L835.161 640.5C835.231 640.193 835.197 639.901 835.058 639.623C834.919 639.345 834.652 639.147 834.256 639.029C833.907 638.926 833.559 638.923 833.212 639.02C832.865 639.114 832.541 639.3 832.24 639.578C831.94 639.852 831.686 640.208 831.478 640.644C831.26 641.089 831.144 641.494 831.13 641.86C831.115 642.226 831.196 642.537 831.372 642.792C831.547 643.048 831.811 643.228 832.162 643.332C832.402 643.403 832.638 643.427 832.87 643.401C833.106 643.374 833.327 643.302 833.535 643.185C833.746 643.068 833.93 642.908 834.088 642.703L835.309 643.066C835.066 643.446 834.755 643.757 834.377 643.999C834.001 644.243 833.582 644.397 833.119 644.463C832.656 644.529 832.171 644.486 831.664 644.336ZM837.349 646.025C836.719 645.838 836.238 645.548 835.905 645.154C835.577 644.759 835.403 644.291 835.386 643.748C835.369 643.203 835.515 642.614 835.824 641.981C836.129 641.355 836.52 640.84 836.998 640.436C837.476 640.032 838.002 639.762 838.577 639.626C839.154 639.491 839.741 639.512 840.338 639.69C840.7 639.797 841.024 639.959 841.309 640.174C841.597 640.39 841.815 640.66 841.965 640.983C842.115 641.307 842.172 641.687 842.136 642.122C842.105 642.556 841.955 643.05 841.687 643.604L841.484 644.027L836.373 642.508L836.798 641.615L840.679 642.768C840.835 642.456 840.907 642.16 840.893 641.88C840.88 641.597 840.787 641.349 840.613 641.137C840.442 640.925 840.194 640.771 839.868 640.674C839.533 640.575 839.195 640.57 838.852 640.659C838.51 640.749 838.201 640.901 837.925 641.116C837.652 641.33 837.448 641.573 837.312 641.845L836.911 642.659C836.699 643.106 836.6 643.486 836.613 643.799C836.629 644.113 836.743 644.372 836.956 644.575C837.169 644.777 837.464 644.935 837.84 645.047C838.083 645.119 838.317 645.152 838.543 645.146C838.773 645.139 838.989 645.092 839.19 645.006C839.392 644.918 839.578 644.788 839.747 644.617L840.83 645.17C840.573 645.473 840.262 645.713 839.897 645.89C839.533 646.064 839.134 646.165 838.7 646.194C838.271 646.221 837.82 646.165 837.349 646.025ZM844.927 648.272C844.406 648.117 844.003 647.854 843.719 647.481C843.439 647.106 843.297 646.65 843.293 646.112C843.293 645.572 843.453 644.971 843.774 644.311C844.097 643.652 844.49 643.122 844.951 642.722C845.413 642.322 845.907 642.058 846.434 641.929C846.961 641.8 847.484 641.813 848.002 641.967C848.401 642.086 848.69 642.245 848.871 642.444C849.055 642.641 849.174 642.844 849.228 643.051C849.281 643.258 849.315 643.436 849.328 643.586L849.399 643.607L850.876 640.582L852.127 640.954L848.159 649.096L846.938 648.733L847.407 647.785L847.302 647.754C847.164 647.861 846.982 647.977 846.757 648.102C846.535 648.227 846.272 648.315 845.968 648.368C845.664 648.42 845.317 648.388 844.927 648.272ZM845.666 647.331C846.026 647.438 846.376 647.439 846.717 647.334C847.061 647.227 847.379 647.032 847.669 646.748C847.963 646.465 848.214 646.109 848.424 645.679C848.632 645.256 848.746 644.865 848.768 644.507C848.789 644.149 848.716 643.844 848.548 643.591C848.381 643.338 848.114 643.157 847.749 643.048C847.373 642.936 847.016 642.937 846.679 643.049C846.343 643.161 846.035 643.36 845.756 643.644C845.48 643.929 845.244 644.273 845.049 644.676C844.849 645.084 844.731 645.47 844.696 645.832C844.661 646.195 844.721 646.509 844.876 646.773C845.032 647.035 845.295 647.221 845.666 647.331ZM848.88 649.31L851.86 643.205L853.11 643.576L850.131 649.682L848.88 649.31ZM853.045 642.464C852.827 642.4 852.665 642.273 852.557 642.083C852.453 641.891 852.437 641.695 852.509 641.495C852.581 641.292 852.72 641.142 852.925 641.045C853.13 640.945 853.341 640.927 853.555 640.991C853.773 641.056 853.933 641.184 854.037 641.376C854.142 641.565 854.159 641.761 854.09 641.965C854.018 642.165 853.879 642.315 853.674 642.415C853.472 642.512 853.262 642.529 853.045 642.464ZM855.461 651.407C854.836 651.221 854.366 650.929 854.051 650.529C853.737 650.126 853.576 649.651 853.568 649.106C853.56 648.56 853.705 647.981 854.002 647.369C854.302 646.748 854.689 646.236 855.164 645.834C855.642 645.43 856.17 645.161 856.747 645.026C857.327 644.892 857.919 644.914 858.524 645.094C859.012 645.239 859.405 645.454 859.703 645.74C860.001 646.023 860.193 646.353 860.278 646.73C860.363 647.108 860.329 647.509 860.175 647.933L858.958 647.572C859.028 647.265 858.993 646.972 858.855 646.694C858.716 646.416 858.448 646.218 858.052 646.101C857.704 645.997 857.356 645.994 857.008 646.091C856.662 646.185 856.338 646.371 856.037 646.649C855.737 646.924 855.483 647.279 855.274 647.715C855.057 648.16 854.941 648.566 854.926 648.932C854.912 649.297 854.992 649.608 855.168 649.864C855.344 650.119 855.608 650.299 855.959 650.404C856.199 650.475 856.435 650.498 856.667 650.473C856.902 650.446 857.124 650.374 857.332 650.256C857.542 650.14 857.727 649.979 857.885 649.774L859.106 650.137C858.863 650.517 858.552 650.828 858.173 651.071C857.797 651.314 857.378 651.469 856.916 651.534C856.453 651.6 855.968 651.558 855.461 651.407ZM861.448 648.894L859.687 652.522L858.436 652.15L862.404 644.007L863.637 644.374L862.163 647.404L862.243 647.428C862.55 647.14 862.905 646.947 863.307 646.848C863.714 646.747 864.168 646.771 864.669 646.92C865.11 647.051 865.453 647.252 865.697 647.521C865.944 647.792 866.076 648.126 866.092 648.522C866.111 648.916 865.998 649.368 865.752 649.877L863.852 653.76L862.602 653.388L864.424 649.646C864.642 649.198 864.689 648.815 864.565 648.496C864.443 648.174 864.168 647.95 863.741 647.823C863.443 647.735 863.148 647.715 862.857 647.765C862.569 647.816 862.302 647.937 862.057 648.128C861.813 648.317 861.61 648.572 861.448 648.894ZM864.457 653.939L867.437 647.833L868.687 648.205L865.707 654.311L864.457 653.939ZM868.621 647.093C868.404 647.029 868.242 646.901 868.134 646.712C868.03 646.52 868.014 646.324 868.086 646.124C868.158 645.921 868.297 645.771 868.502 645.674C868.707 645.574 868.917 645.556 869.132 645.62C869.35 645.685 869.51 645.813 869.614 646.005C869.719 646.193 869.736 646.39 869.667 646.594C869.595 646.794 869.456 646.944 869.251 647.044C869.049 647.141 868.839 647.158 868.621 647.093ZM874.365 649.892L873.904 650.848L870.395 649.805L870.856 648.85L874.365 649.892ZM872.505 647.665L873.756 648.036L870.938 653.812C870.827 654.043 870.78 654.228 870.796 654.367C870.813 654.502 870.87 654.608 870.965 654.685C871.064 654.76 871.182 654.818 871.319 654.859C871.419 654.889 871.509 654.908 871.589 654.916C871.668 654.925 871.731 654.931 871.778 654.936L871.538 655.989C871.446 655.992 871.325 655.986 871.175 655.972C871.026 655.961 870.851 655.927 870.65 655.871C870.319 655.778 870.039 655.632 869.811 655.43C869.583 655.226 869.442 654.978 869.386 654.685C869.331 654.389 869.395 654.058 869.577 653.69L872.505 647.665ZM871.709 656.094L874.688 649.988L875.939 650.36L872.959 656.466L871.709 656.094ZM875.873 649.248C875.656 649.184 875.493 649.056 875.386 648.867C875.282 648.675 875.266 648.479 875.337 648.279C875.41 648.076 875.549 647.926 875.753 647.829C875.959 647.729 876.169 647.711 876.384 647.775C876.601 647.84 876.762 647.968 876.866 648.159C876.971 648.348 876.988 648.545 876.918 648.749C876.847 648.949 876.708 649.099 876.502 649.198C876.3 649.296 876.091 649.313 875.873 649.248ZM878.654 654.007L876.893 657.635L875.643 657.263L879.61 649.121L880.844 649.487L879.37 652.517L879.449 652.541C879.756 652.253 880.111 652.06 880.514 651.961C880.92 651.86 881.374 651.884 881.876 652.033C882.316 652.164 882.659 652.365 882.903 652.634C883.151 652.905 883.282 653.239 883.298 653.635C883.317 654.029 883.204 654.481 882.959 654.99L881.059 658.873L879.808 658.501L881.63 654.759C881.848 654.311 881.895 653.928 881.772 653.609C881.649 653.287 881.374 653.063 880.948 652.936C880.649 652.848 880.355 652.828 880.064 652.878C879.775 652.929 879.509 653.05 879.264 653.242C879.02 653.43 878.816 653.685 878.654 654.007ZM883.474 659.745C883.067 659.624 882.734 659.443 882.474 659.202C882.216 658.959 882.057 658.67 881.999 658.337C881.94 658.004 882.008 657.638 882.203 657.237C882.372 656.893 882.58 656.63 882.828 656.449C883.079 656.269 883.354 656.149 883.654 656.089C883.955 656.027 884.268 656.006 884.592 656.027C884.917 656.047 885.239 656.087 885.559 656.145C885.962 656.217 886.29 656.273 886.541 656.314C886.796 656.357 886.994 656.364 887.136 656.336C887.278 656.306 887.385 656.219 887.454 656.076L887.463 656.047C887.629 655.702 887.66 655.404 887.555 655.155C887.454 654.903 887.203 654.718 886.801 654.598C886.383 654.474 886.004 654.462 885.665 654.561C885.329 654.662 885.06 654.806 884.858 654.995L883.817 654.394C884.133 654.064 884.482 653.824 884.863 653.676C885.247 653.527 885.641 653.453 886.044 653.454C886.448 653.453 886.844 653.51 887.231 653.625C887.488 653.701 887.745 653.811 888.003 653.954C888.262 654.095 888.48 654.278 888.659 654.504C888.84 654.731 888.943 655.009 888.966 655.337C888.991 655.663 888.895 656.049 888.677 656.494L886.703 660.55L885.482 660.187L885.893 659.354L885.843 659.339C885.689 659.469 885.494 659.584 885.258 659.684C885.025 659.784 884.758 659.846 884.457 659.869C884.155 659.892 883.828 659.85 883.474 659.745ZM884.199 658.868C884.547 658.972 884.876 658.995 885.184 658.938C885.495 658.882 885.767 658.768 886 658.598C886.233 658.424 886.408 658.217 886.526 657.976L886.91 657.189C886.844 657.217 886.738 657.23 886.594 657.227C886.452 657.224 886.294 657.212 886.122 657.191C885.949 657.17 885.78 657.146 885.615 657.118C885.453 657.091 885.318 657.071 885.21 657.057C884.956 657.015 884.71 656.998 884.474 657.007C884.241 657.016 884.033 657.068 883.85 657.162C883.668 657.254 883.526 657.406 883.423 657.618C883.281 657.913 883.285 658.169 883.436 658.387C883.59 658.602 883.845 658.763 884.199 658.868ZM891.725 662.179C891.203 662.024 890.801 661.76 890.517 661.387C890.237 661.013 890.095 660.557 890.091 660.018C890.091 659.478 890.251 658.878 890.571 658.218C890.895 657.558 891.287 657.028 891.749 656.629C892.211 656.229 892.705 655.964 893.232 655.836C893.759 655.707 894.281 655.72 894.8 655.874C895.199 655.992 895.488 656.151 895.669 656.35C895.853 656.548 895.972 656.75 896.025 656.957C896.079 657.164 896.113 657.343 896.126 657.492L896.197 657.513L897.674 654.488L898.924 654.86L894.957 663.003L893.736 662.64L894.204 661.691L894.1 661.66C893.962 661.768 893.78 661.884 893.555 662.008C893.333 662.133 893.07 662.222 892.766 662.274C892.462 662.327 892.115 662.295 891.725 662.179ZM892.464 661.238C892.824 661.345 893.174 661.346 893.515 661.24C893.859 661.133 894.176 660.938 894.467 660.654C894.761 660.371 895.012 660.015 895.222 659.586C895.429 659.162 895.544 658.771 895.565 658.413C895.587 658.056 895.514 657.75 895.346 657.497C895.179 657.244 894.912 657.063 894.547 656.955C894.17 656.843 893.814 656.843 893.477 656.955C893.14 657.068 892.832 657.266 892.554 657.55C892.278 657.836 892.042 658.18 891.846 658.583C891.646 658.991 891.529 659.376 891.494 659.739C891.459 660.102 891.519 660.415 891.674 660.68C891.83 660.942 892.093 661.128 892.464 661.238ZM898.391 664.164C897.761 663.977 897.28 663.687 896.948 663.294C896.619 662.899 896.446 662.43 896.428 661.888C896.411 661.343 896.557 660.753 896.867 660.12C897.171 659.494 897.562 658.979 898.04 658.575C898.518 658.171 899.045 657.901 899.619 657.766C900.196 657.631 900.783 657.652 901.38 657.829C901.742 657.937 902.066 658.098 902.351 658.313C902.639 658.529 902.858 658.799 903.007 659.123C903.157 659.446 903.214 659.826 903.179 660.262C903.147 660.695 902.997 661.189 902.729 661.744L902.526 662.166L897.415 660.647L897.84 659.754L901.721 660.907C901.878 660.596 901.949 660.3 901.935 660.02C901.922 659.737 901.829 659.489 901.655 659.276C901.484 659.065 901.236 658.911 900.91 658.814C900.575 658.714 900.237 658.709 899.895 658.799C899.552 658.888 899.243 659.041 898.967 659.256C898.694 659.469 898.49 659.712 898.354 659.984L897.953 660.798C897.742 661.245 897.642 661.625 897.655 661.938C897.671 662.253 897.786 662.511 897.998 662.714C898.211 662.917 898.506 663.074 898.882 663.186C899.125 663.258 899.359 663.291 899.585 663.286C899.815 663.278 900.031 663.231 900.232 663.146C900.435 663.057 900.62 662.927 900.79 662.756L901.872 663.31C901.615 663.613 901.304 663.853 900.939 664.029C900.575 664.203 900.176 664.305 899.743 664.334C899.313 664.361 898.862 664.304 898.391 664.164ZM907.531 659.748L907.07 660.703L903.561 659.661L904.022 658.705L907.531 659.748ZM905.672 657.521L906.922 657.892L904.104 663.668C903.993 663.899 903.946 664.084 903.962 664.222C903.98 664.358 904.036 664.464 904.132 664.541C904.231 664.616 904.349 664.674 904.485 664.714C904.586 664.744 904.676 664.763 904.755 664.772C904.834 664.78 904.898 664.787 904.945 664.792L904.705 665.845C904.613 665.848 904.492 665.842 904.341 665.828C904.193 665.817 904.018 665.783 903.816 665.726C903.485 665.634 903.206 665.487 902.977 665.286C902.75 665.082 902.608 664.833 902.552 664.541C902.498 664.245 902.561 663.914 902.743 663.546L905.672 657.521ZM910.853 660.735L910.392 661.691L906.883 660.648L907.344 659.693L910.853 660.735ZM908.994 658.508L910.244 658.879L907.426 664.655C907.315 664.886 907.268 665.071 907.284 665.209C907.302 665.345 907.358 665.451 907.454 665.528C907.553 665.603 907.671 665.661 907.807 665.702C907.908 665.731 907.998 665.751 908.077 665.759C908.156 665.767 908.22 665.774 908.267 665.779L908.027 666.832C907.935 666.835 907.814 666.829 907.663 666.815C907.515 666.804 907.34 666.77 907.138 666.713C906.807 666.621 906.528 666.474 906.299 666.273C906.072 666.069 905.93 665.821 905.874 665.528C905.82 665.232 905.883 664.901 906.065 664.533L908.994 658.508ZM910.825 667.859C910.214 667.678 909.745 667.387 909.418 666.986C909.092 666.583 908.92 666.104 908.903 665.549C908.889 664.993 909.037 664.395 909.345 663.755C909.647 663.129 910.031 662.618 910.497 662.222C910.966 661.828 911.484 661.567 912.049 661.441C912.618 661.316 913.2 661.342 913.797 661.519C914.407 661.7 914.874 661.992 915.198 662.395C915.524 662.798 915.695 663.279 915.712 663.836C915.728 664.393 915.582 664.993 915.273 665.635C914.973 666.256 914.587 666.763 914.115 667.157C913.646 667.549 913.129 667.808 912.564 667.934C911.998 668.061 911.419 668.036 910.825 667.859ZM911.208 666.831C911.609 666.95 911.991 666.948 912.352 666.825C912.716 666.702 913.045 666.493 913.339 666.199C913.633 665.904 913.877 665.557 914.071 665.16C914.255 664.775 914.364 664.405 914.396 664.05C914.432 663.694 914.373 663.382 914.219 663.115C914.065 662.847 913.797 662.657 913.415 662.543C913.013 662.424 912.629 662.427 912.261 662.551C911.897 662.673 911.568 662.883 911.273 663.181C910.981 663.48 910.739 663.828 910.548 664.227C910.364 664.609 910.255 664.978 910.219 665.335C910.183 665.689 910.243 665.998 910.398 666.262C910.553 666.527 910.823 666.716 911.208 666.831ZM918.872 670.25C918.247 670.065 917.778 669.772 917.463 669.372C917.148 668.969 916.987 668.495 916.98 667.949C916.972 667.404 917.117 666.825 917.414 666.212C917.714 665.591 918.101 665.08 918.575 664.678C919.054 664.274 919.581 664.004 920.158 663.869C920.738 663.735 921.331 663.758 921.936 663.938C922.424 664.083 922.817 664.298 923.114 664.583C923.412 664.866 923.604 665.196 923.689 665.574C923.774 665.951 923.74 666.352 923.587 666.777L922.369 666.415C922.439 666.108 922.405 665.816 922.266 665.538C922.127 665.26 921.86 665.062 921.464 664.944C921.115 664.841 920.767 664.837 920.42 664.934C920.073 665.029 919.749 665.215 919.448 665.492C919.148 665.767 918.894 666.123 918.686 666.558C918.468 667.004 918.352 667.409 918.338 667.775C918.323 668.141 918.404 668.451 918.58 668.707C918.756 668.963 919.019 669.143 919.37 669.247C919.61 669.318 919.846 669.341 920.078 669.316C920.314 669.289 920.536 669.217 920.743 669.1C920.954 668.983 921.138 668.823 921.296 668.618L922.517 668.981C922.274 669.36 921.963 669.672 921.585 669.914C921.209 670.157 920.79 670.312 920.327 670.378C919.864 670.444 919.379 670.401 918.872 670.25ZM924.859 667.737L923.098 671.365L921.848 670.994L925.815 662.851L927.049 663.218L925.575 666.248L925.654 666.271C925.961 665.983 926.316 665.79 926.719 665.691C927.125 665.59 927.579 665.614 928.081 665.764C928.522 665.895 928.864 666.095 929.109 666.365C929.356 666.636 929.487 666.969 929.503 667.365C929.523 667.759 929.409 668.211 929.164 668.721L927.264 672.603L926.013 672.231L927.835 668.49C928.053 668.042 928.101 667.658 927.977 667.339C927.854 667.018 927.579 666.793 927.153 666.667C926.854 666.578 926.56 666.559 926.269 666.609C925.98 666.66 925.714 666.781 925.469 666.972C925.225 667.16 925.021 667.415 924.859 667.737ZM927.868 672.783L930.848 666.677L932.099 667.049L929.119 673.154L927.868 672.783ZM932.033 665.937C931.815 665.872 931.653 665.745 931.546 665.555C931.442 665.363 931.426 665.167 931.497 664.967C931.57 664.764 931.708 664.614 931.913 664.517C932.119 664.418 932.329 664.4 932.544 664.463C932.761 664.528 932.922 664.656 933.026 664.848C933.13 665.037 933.148 665.233 933.078 665.437C933.006 665.637 932.868 665.787 932.662 665.887C932.46 665.985 932.25 666.001 932.033 665.937ZM938.866 670.766L937.64 670.62C937.659 670.465 937.648 670.31 937.609 670.156C937.573 670.003 937.489 669.863 937.357 669.735C937.225 669.605 937.03 669.502 936.771 669.425C936.411 669.318 936.072 669.306 935.752 669.39C935.436 669.475 935.22 669.639 935.106 669.881C935.008 670.077 935.007 670.258 935.103 670.426C935.2 670.592 935.404 670.766 935.717 670.95L936.634 671.478C937.162 671.783 937.506 672.118 937.665 672.48C937.828 672.841 937.803 673.241 937.591 673.678C937.414 674.041 937.146 674.33 936.787 674.546C936.432 674.762 936.02 674.891 935.552 674.934C935.084 674.977 934.594 674.922 934.081 674.77C933.35 674.553 932.828 674.229 932.512 673.799C932.197 673.368 932.118 672.868 932.275 672.299L933.568 672.483C933.497 672.805 933.539 673.076 933.694 673.299C933.853 673.519 934.115 673.683 934.481 673.792C934.898 673.919 935.274 673.935 935.609 673.84C935.943 673.746 936.168 673.577 936.282 673.335C936.375 673.147 936.379 672.969 936.295 672.802C936.214 672.635 936.032 672.472 935.749 672.312L934.783 671.765C934.243 671.456 933.899 671.114 933.749 670.739C933.6 670.364 933.633 669.958 933.847 669.521C934.021 669.163 934.277 668.882 934.616 668.68C934.959 668.475 935.352 668.354 935.794 668.315C936.237 668.274 936.699 668.324 937.178 668.467C937.878 668.675 938.359 668.982 938.621 669.387C938.883 669.79 938.965 670.25 938.866 670.766ZM939.766 676.459C939.136 676.272 938.655 675.982 938.322 675.589C937.994 675.194 937.82 674.725 937.802 674.183C937.785 673.637 937.932 673.048 938.241 672.415C938.546 671.789 938.937 671.274 939.415 670.87C939.893 670.466 940.419 670.196 940.994 670.06C941.571 669.926 942.158 669.947 942.754 670.124C943.117 670.232 943.441 670.393 943.726 670.608C944.013 670.824 944.232 671.094 944.382 671.418C944.531 671.741 944.589 672.121 944.553 672.557C944.521 672.99 944.372 673.484 944.104 674.039L943.901 674.461L938.79 672.942L939.215 672.049L943.096 673.202C943.252 672.891 943.324 672.595 943.31 672.314C943.297 672.031 943.203 671.784 943.03 671.571C942.859 671.36 942.611 671.205 942.284 671.109C941.95 671.009 941.611 671.004 941.269 671.094C940.927 671.183 940.618 671.336 940.341 671.551C940.069 671.764 939.865 672.007 939.729 672.279L939.328 673.093C939.116 673.54 939.017 673.92 939.03 674.233C939.046 674.548 939.16 674.806 939.373 675.009C939.586 675.212 939.88 675.369 940.257 675.481C940.499 675.553 940.734 675.586 940.96 675.581C941.19 675.573 941.405 675.526 941.607 675.441C941.809 675.352 941.995 675.222 942.164 675.051L943.247 675.605C942.99 675.908 942.679 676.148 942.314 676.324C941.95 676.498 941.551 676.6 941.117 676.629C940.688 676.656 940.237 676.599 939.766 676.459ZM942.928 677.258L945.907 671.152L947.158 671.524L944.178 677.629L942.928 677.258ZM947.092 670.412C946.875 670.347 946.712 670.22 946.605 670.03C946.501 669.838 946.485 669.643 946.556 669.442C946.629 669.239 946.768 669.089 946.972 668.992C947.178 668.893 947.388 668.875 947.603 668.938C947.82 669.003 947.981 669.131 948.085 669.323C948.19 669.512 948.207 669.708 948.137 669.912C948.066 670.112 947.927 670.262 947.721 670.362C947.519 670.46 947.31 670.476 947.092 670.412ZM945.705 678.17C945.471 678.1 945.3 677.961 945.192 677.753C945.087 677.546 945.07 677.325 945.143 677.092C945.214 676.862 945.358 676.693 945.575 676.588C945.795 676.48 946.019 676.46 946.248 676.528C946.476 676.596 946.648 676.735 946.761 676.945C946.875 677.155 946.893 677.37 946.816 677.589C946.761 677.743 946.674 677.872 946.555 677.976C946.44 678.078 946.307 678.148 946.156 678.185C946.006 678.22 945.856 678.214 945.705 678.17ZM951.279 670.418L950.914 671.183C950.805 671.409 950.644 671.633 950.433 671.855C950.225 672.075 949.985 672.276 949.713 672.456C949.443 672.637 949.163 672.778 948.872 672.88L948.452 672.272C948.726 672.093 948.986 671.892 949.231 671.671C949.476 671.449 949.675 671.184 949.827 670.874L950.208 670.099L951.279 670.418ZM953.407 671.05L953.043 671.816C952.934 672.041 952.773 672.265 952.561 672.488C952.353 672.708 952.113 672.908 951.841 673.088C951.572 673.269 951.29 673.41 950.997 673.511L950.576 672.903C950.851 672.724 951.111 672.524 951.356 672.302C951.603 672.081 951.804 671.816 951.956 671.507L952.337 670.732L953.407 671.05Z" fill="black"/>
<path d="M-519.675 691.649L-519.675 249.268L-404.891 249.268L-404.891 305.404H-402.377C-398.188 294.512 -392.044 284.528 -383.945 275.451C-375.846 266.235 -365.792 258.904 -353.783 253.458C-341.774 247.872 -327.809 245.079 -311.89 245.079C-290.665 245.079 -270.487 250.735 -251.356 262.045C-232.086 273.356 -216.446 291.16 -204.437 315.458C-192.288 339.755 -186.214 371.314 -186.214 410.134C-186.214 447.279 -192.009 478.069 -203.599 502.506C-215.05 526.943 -230.41 545.167 -249.681 557.176C-268.811 569.185 -289.827 575.189 -312.728 575.189C-327.809 575.189 -341.285 572.746 -353.154 567.858C-364.884 562.831 -374.938 556.058 -383.317 547.54C-391.555 538.883 -397.909 529.108 -402.377 518.216H-404.053V691.649H-519.675ZM-406.567 410.134C-406.567 425.774 -404.542 439.319 -400.492 450.77C-396.303 462.08 -390.438 470.878 -382.898 477.162C-375.217 483.306 -366.071 486.378 -355.458 486.378C-344.846 486.378 -335.839 483.376 -328.438 477.371C-320.897 471.227 -315.172 462.499 -311.262 451.188C-307.213 439.738 -305.188 426.053 -305.188 410.134C-305.188 394.215 -307.213 380.6 -311.262 369.289C-315.172 357.839 -320.897 349.111 -328.438 343.107C-335.839 336.963 -344.846 333.89 -355.458 333.89C-366.071 333.89 -375.217 336.963 -382.898 343.107C-390.438 349.111 -396.303 357.839 -400.492 369.289C-404.542 380.6 -406.567 394.215 -406.567 410.134ZM-35.8611 576.865C-70.7712 576.865 -100.654 569.953 -125.51 556.128C-150.366 542.164 -169.427 522.754 -182.693 497.898C-195.959 472.903 -202.592 443.927 -202.592 410.972C-202.592 378.017 -195.959 349.111 -182.693 324.255C-169.427 299.26 -150.366 279.85 -125.51 266.025C-100.654 252.061 -70.7712 245.079 -35.8611 245.079C-0.950947 245.079 28.9321 252.061 53.7881 266.025C78.6441 279.85 97.7051 299.26 110.971 324.255C124.237 349.111 130.87 378.017 130.87 410.972C130.87 443.927 124.237 472.903 110.971 497.898C97.7051 522.754 78.6441 542.164 53.7881 556.128C28.9321 569.953 -0.950947 576.865 -35.8611 576.865ZM-35.0232 491.405C-25.2484 491.405 -16.8001 488.123 -9.67847 481.56C-2.55681 474.997 2.95899 465.641 6.86892 453.493C10.7789 441.344 12.7338 426.891 12.7338 410.134C12.7338 393.238 10.7789 378.785 6.86892 366.776C2.95899 354.627 -2.55681 345.271 -9.67847 338.708C-16.8001 332.145 -25.2484 328.863 -35.0232 328.863C-45.3566 328.863 -54.2238 332.145 -61.6247 338.708C-69.0257 345.271 -74.6811 354.627 -78.591 366.776C-82.501 378.785 -84.4559 393.238 -84.4559 410.134C-84.4559 426.891 -82.501 441.344 -78.591 453.493C-74.6811 465.641 -69.0257 474.997 -61.6247 481.56C-54.2238 488.123 -45.3566 491.405 -35.0232 491.405ZM317.407 249.268V333.053H102.081V249.268L317.407 249.268ZM143.136 571L143.136 240.052C143.136 213.52 147.883 191.527 157.379 174.072C166.875 156.617 180.28 143.56 197.595 134.903C214.911 126.245 235.298 121.916 258.758 121.916C273.42 121.916 287.664 123.033 301.488 125.268C315.452 127.502 325.785 129.457 332.488 131.132L315.731 214.079C311.542 212.822 306.655 211.845 301.069 211.146C295.483 210.309 290.596 209.89 286.407 209.89C275.515 209.89 268.184 212.194 264.413 216.802C260.643 221.41 258.758 227.484 258.758 235.025L258.758 571H143.136ZM501.64 249.268V333.053L286.315 333.053V249.268L501.64 249.268ZM327.369 571L327.369 240.052C327.369 213.52 332.117 191.527 341.612 174.072C351.108 156.617 364.513 143.56 381.829 134.903C399.144 126.245 419.532 121.916 442.991 121.916C457.653 121.916 471.897 123.033 485.721 125.268C499.685 127.502 510.019 129.457 516.721 131.132L499.965 214.079C495.775 212.822 490.888 211.845 485.302 211.146C479.717 210.309 474.829 209.89 470.64 209.89C459.748 209.89 452.417 212.194 448.647 216.802C444.876 221.41 442.991 227.484 442.991 235.025L442.991 571H327.369ZM638.378 576.865C603.468 576.865 573.585 569.953 548.729 556.128C523.873 542.164 504.812 522.754 491.546 497.898C478.28 472.903 471.648 443.927 471.648 410.972C471.648 378.017 478.28 349.111 491.546 324.255C504.812 299.26 523.873 279.85 548.729 266.025C573.585 252.061 603.468 245.079 638.378 245.079C673.288 245.079 703.171 252.061 728.027 266.025C752.883 279.85 771.944 299.26 785.21 324.255C798.476 349.111 805.109 378.017 805.109 410.972C805.109 443.927 798.476 472.903 785.21 497.898C771.944 522.754 752.883 542.164 728.027 556.128C703.171 569.953 673.288 576.865 638.378 576.865ZM639.216 491.405C648.991 491.405 657.439 488.123 664.561 481.56C671.683 474.997 677.198 465.641 681.108 453.493C685.018 441.344 686.973 426.891 686.973 410.134C686.973 393.238 685.018 378.785 681.108 366.776C677.198 354.627 671.683 345.271 664.561 338.708C657.439 332.145 648.991 328.863 639.216 328.863C628.883 328.863 620.016 332.145 612.615 338.708C605.214 345.271 599.558 354.627 595.648 366.776C591.738 378.785 589.783 393.238 589.783 410.134C589.783 426.891 591.738 441.344 595.648 453.493C599.558 465.641 605.214 474.997 612.615 481.56C620.016 488.123 628.883 491.405 639.216 491.405Z" fill="black"/>
<g style="mix-blend-mode:difference">
<path d="M677 464C668.833 459.666 657.04 455.697 648.5 464C630.5 481.5 694.5 595 738.5 576.5C752.907 570.442 745.5 549 743.5 546" stroke="white" stroke-width="2"/>
</g>
<path d="M701.5 567.5C711 579.5 760.5 591 743 545" stroke="black" stroke-width="3"/>
<path d="M648.5 490.5C643 476.5 644 446 677.5 464.5" stroke="black" stroke-width="3"/>
</svg>
